<?xml version="1.0" encoding="utf-8"?>
<!-- Generator: Adobe Illustrator 22.0.1, SVG Export Plug-In . SVG Version: 6.00 Build 0)  -->
<svg version="1.1" id="Layer_1" xmlns="http://www.w3.org/2000/svg" xmlns:xlink="http://www.w3.org/1999/xlink" x="0px" y="0px"
	 viewBox="0 0 269 57" style="enable-background:new 0 0 269 57;" xml:space="preserve">
<style type="text/css">
	.st0{fill:#36BFEC;}
	.st1{fill:#005586;}
</style>
<g>
	<g>
		<path class="st0" d="M29.5,51.2h7.4V37c-0.6,0.6-4.7,4.1-7.4,5.4V51.2z"/>
		<path class="st0" d="M54.2,14v12.9c-2.7-1.3-5.7-2-8.9-2c-3,0-5.9,0.7-8.5,1.8V14h-7.4v18.1c-0.4,0.3-0.7,0.5-0.7,0.5
			c-2.2,1.6-5,2.6-7.9,2.6c-7.5,0-13.5-6.1-13.5-13.5S13.5,8.1,21,8.1c2.7,0,5.1,0.8,7.2,2.1V2C26,1.2,23.5,0.7,21,0.7
			C9.5,0.7,0.1,10.1,0.1,21.6S9.4,42.5,21,42.5c2.8,0,5.1-0.5,7.9-1.6c0.2-0.1,0.4-0.2,0.7-0.3c2.6-1.3,6.7-4.9,7.4-5.4
			c0.1,0,0.1-0.1,0.1-0.1c2.3-1.8,5.2-2.9,8.4-2.9c3.4,0,6.5,1.3,8.9,3.3v15.6h7.4V14H54.2z"/>
		<path class="st0" d="M13.8,23.1c0.1-0.3,0-0.6,0-0.9c0-0.7-0.1-1.3-0.2-2c-0.2-1.6-0.2-3.2,0.7-4.6c0.2-0.3,0.4-0.6,0.7-0.9
			c0,0,0,0,0.1,0c1-1,2.5-1.6,4.2-1.7c0.5,0,1.3,0,2.2,0.3c0.7,0.2,1.3,0.4,2,0.8c0.3,0.1,0.6,0.4,0.8,0.5c0.3,0.2,0.5,0.4,0.7,0.7
			c0.4,0.6,0.7,1.5,0.3,2.3l-0.1,0.2L25.1,18v-0.4c0,0.1-0.2,0.4-0.3,0.4l0,0c0,0.2-0.1,0.3-0.1,0.4c-0.1,0.3-0.2,0.4-0.3,0.7v0.1
			c0.3,0,0.3-0.2,0.3-0.1s-0.2,0.2-0.3,0.2c0,0.5,0.5,1.1,0.6,1.2c0.2,0.2,0.4,0.4,0.5,0.5c0.2,0.3-0.4,0.7-0.5,0.8
			c0.1,0.2,0.2,0.2,0.2,0.4c0.1,0.2-0.4,0.3-0.3,0.4s0.1,0.4,0,0.5c-0.4,0.3-0.3,0.4-0.2,0.9c0.1,0.6-0.2,0.8-0.7,0.9
			c-0.4,0.1-1.5-0.3-1.9-0.1l0,0c-0.8,0.6-1.5,1.9,0.7,5c0.2,0.2,0.8,0.9,0.4,0.9c-1.6,0-4.2-3.4-7.9-1.2c-0.5,0.3,1.6-2.7,2-4.3
			c-0.3,0-0.6-0.2-1-0.5c0,0.2,0.2,0.3,0.3,0.5c0,0-0.1,0-0.2,0s-0.1,0-0.2,0c-0.4,0-0.9-0.1-1.3-0.3c-0.2-0.1-0.3-0.4-0.4-0.6
			c0-0.1-0.1-0.4-0.1-0.6c0,0.1-0.1,0.3-0.3,0.4c-0.2,0.1-0.4,0.2-0.7,0.1C13.6,23.9,13.7,23.5,13.8,23.1z"/>
	</g>
	<g transform="translate(74 13)">
		<path class="st1" d="M10.7,12.6c0.3-0.5,0.6-0.9,1.3-0.9s1.5,0.6,1.5,1.4c0,0.3,0,0.5-0.2,0.8c-0.9,2.2-3.3,3.5-5.8,3.5
			c-3.7,0-6.3-2.7-6.6-6.2c-0.1-1.2-0.1-2.4,0-3.5c0.3-3.5,2.9-6.3,6.6-6.3c2.5,0,4.8,1.3,5.8,3.5c0.1,0.4,0.2,0.6,0.2,0.8
			c0,0.8-0.8,1.4-1.5,1.4s-1.1-0.4-1.3-0.9C10.1,5,8.9,4.3,7.6,4.3C5.5,4.3,4.1,5.9,4,8c-0.1,0.9-0.1,1.9,0,2.8
			c0.2,2.2,1.5,3.7,3.6,3.7C9,14.6,10.1,13.8,10.7,12.6z M19.3,6.1c0.5-0.4,1.6-0.9,2.8-0.9c2.8,0,4.4,1.7,4.4,4.8v5.7
			c0,0.9-0.6,1.6-1.5,1.6c-0.8,0-1.5-0.7-1.5-1.6v-5.5c0-1.3-0.8-2.1-2-2.1c-0.9,0-1.8,0.4-2.3,0.9v6.7c0,0.8-0.6,1.5-1.5,1.5
			c-0.8,0-1.5-0.7-1.5-1.5V2.9c0-0.9,0.6-1.5,1.5-1.5c0.8,0,1.5,0.7,1.5,1.5L19.3,6.1L19.3,6.1z M31.1,4.1c-0.9,0-1.6-0.7-1.6-1.6
			s0.7-1.6,1.6-1.6s1.6,0.7,1.6,1.6S32,4.1,31.1,4.1z M32.6,6.9v8.9c0,0.8-0.6,1.5-1.5,1.5c-0.8,0-1.5-0.7-1.5-1.5V6.9
			c0-0.9,0.6-1.5,1.5-1.5C32,5.3,32.6,6,32.6,6.9z M38.8,3v12.8c0,0.8-0.6,1.5-1.5,1.5c-0.8,0-1.5-0.7-1.5-1.5V3
			c0-0.9,0.6-1.5,1.5-1.5C38.2,1.4,38.8,2.1,38.8,3z M46.5,5.3c0.9,0,1.9,0.3,2.6,0.6V3c0-0.9,0.7-1.5,1.5-1.5
			c0.8,0,1.5,0.7,1.5,1.5v12c0,0.5-0.1,0.8-0.5,1c-0.6,0.4-2.4,1.4-4.6,1.4c-3.1,0-5-1.9-5.2-4.6c-0.1-0.8-0.1-2.2,0-3
			C42,7,43.6,5.3,46.5,5.3z M47,14.6c0.8,0,1.8-0.4,2.1-0.7V8.7c-0.4-0.2-1.3-0.6-2.3-0.6c-1.4,0-2.1,0.8-2.2,2.1c0,0.5,0,1.5,0,2.1
			C44.7,13.8,45.6,14.6,47,14.6z M62.3,7c0,0.6-0.5,1.4-1.4,1.4c-0.5,0-1-0.2-1.7-0.2s-1.1,0.4-1.1,1.4v6.2c0,0.8-0.6,1.5-1.5,1.5
			c-0.8,0-1.5-0.7-1.5-1.5V9c0-2.3,1.3-3.8,3.9-3.8c0.7,0,1.5,0.1,1.9,0.2C61.8,5.7,62.3,6.2,62.3,7z M73.8,10.9
			c0,0.9-0.4,1.5-1.5,1.5h-5.9v0.2c0,1.4,1.1,2.1,2.5,2.1c0.8,0,1.6-0.2,2.4-0.5c1.2-0.4,1.9,0.4,1.9,1.2c0,0.4-0.2,0.9-0.7,1.2
			c-0.8,0.5-2.2,0.8-3.6,0.8c-3,0-5.1-1.9-5.3-4.7c-0.1-0.9,0-2.1,0-2.8c0.3-2.9,2.3-4.7,5.2-4.7c3,0,5,2,5,5.1V10.9z M70.7,10.3
			c0.2,0,0.2-0.1,0.2-0.3c0.1-1.3-0.8-2.2-2.2-2.2c-1.6,0-2.3,1-2.3,2.5H70.7z M86.6,15.8c0,0.8-0.6,1.5-1.5,1.5
			c-0.8,0-1.5-0.7-1.5-1.5v-5.6c0-1.4-1-2.1-2.1-2.1c-0.9,0-1.7,0.3-2.2,0.5v7.1c0,0.8-0.6,1.5-1.5,1.5c-0.8,0-1.5-0.7-1.5-1.5V7.5
			c0-0.5,0.2-0.8,0.5-1.1c0.7-0.5,2.3-1.2,4.7-1.2c3.3,0,5,1.7,5,4.8L86.6,15.8L86.6,15.8z M91.5,4.1c0,0.8-0.1,1.8-0.6,2.6
			c-0.3,0.5-0.8,0.9-1.4,0.9c-0.7,0-1.2-0.6-1.2-1.2c0-0.7,0.6-1,0.6-2.2V2.9c0-0.7,0.6-1.3,1.3-1.3c0.7,0,1.3,0.6,1.3,1.3V4.1z
			 M101.7,13.6c0,2.5-2,3.8-4.6,3.8c-2.1,0-3.4-0.6-4.2-1.3c-0.5-0.4-0.7-1.3-0.3-1.8c0.4-0.6,1.2-0.7,1.9-0.3s1.6,0.7,2.6,0.7
			c1.1,0,1.7-0.4,1.7-1c0-0.5-0.4-0.8-1.3-1c-0.8-0.2-0.8-0.2-1.6-0.4c-1.8-0.5-3.2-1.5-3.2-3.4c0-2.4,1.9-3.7,4.5-3.7
			c1.4,0,2.8,0.4,3.6,1c0.6,0.5,0.6,1.4,0.1,2c-0.4,0.5-1.2,0.5-1.9,0.2c-0.6-0.3-1.3-0.5-1.9-0.5c-1.1,0-1.6,0.4-1.6,0.9
			s0.3,0.8,1.3,1l1.6,0.4C100.6,10.7,101.7,11.8,101.7,13.6z M109.7,3.1c0-0.9,0.7-1.5,1.5-1.5c0.9,0,1.5,0.7,1.5,1.5V8h7V3.1
			c0-0.9,0.7-1.5,1.5-1.5c0.9,0,1.5,0.7,1.5,1.5v12.6c0,0.9-0.6,1.6-1.5,1.6c-0.8,0-1.5-0.7-1.5-1.6v-4.8h-7v4.8
			c0,0.9-0.6,1.5-1.5,1.5c-0.8,0-1.5-0.7-1.5-1.5V3.1z M130.9,17.4c-2.9,0-5.1-1.8-5.3-4.5c-0.1-0.9-0.1-2.3,0-3.1
			c0.2-2.6,2.4-4.5,5.3-4.5c2.9,0,5,1.8,5.3,4.5c0.1,0.9,0.1,2.2,0,3.1C136,15.5,133.9,17.4,130.9,17.4z M133.3,10.2
			c-0.1-1.3-0.9-2.1-2.3-2.1s-2.2,0.9-2.4,2.1c0,0.6,0,1.6,0,2.2c0.1,1.3,1,2.1,2.4,2.1s2.2-0.9,2.3-2.1
			C133.3,11.9,133.3,10.8,133.3,10.2z M147.7,13.6c0,2.5-2,3.8-4.6,3.8c-2.1,0-3.4-0.6-4.2-1.3c-0.5-0.4-0.7-1.3-0.3-1.8
			c0.4-0.6,1.2-0.7,1.9-0.3s1.6,0.7,2.6,0.7c1.1,0,1.7-0.4,1.7-1c0-0.5-0.4-0.8-1.3-1c-0.8-0.2-0.8-0.2-1.6-0.4
			c-1.8-0.5-3.2-1.5-3.2-3.4c0-2.4,1.9-3.7,4.5-3.7c1.4,0,2.8,0.4,3.6,1c0.6,0.5,0.6,1.4,0.1,2c-0.4,0.5-1.2,0.5-1.9,0.2
			c-0.6-0.3-1.3-0.5-1.9-0.5c-1.1,0-1.6,0.4-1.6,0.9s0.3,0.8,1.3,1l1.6,0.4C146.6,10.7,147.7,11.8,147.7,13.6z M155.5,17.4
			c-1,0-1.7-0.2-2.5-0.6v3.3c0,0.9-0.7,1.5-1.5,1.5s-1.5-0.7-1.5-1.5V7.5c0-0.3,0.1-0.6,0.4-0.7c0.7-0.5,2.5-1.4,4.8-1.4
			c3,0,4.9,1.9,5.2,4.6c0.1,0.8,0.1,2.2,0,3C160.2,15.6,158.4,17.4,155.5,17.4z M155.2,8.1c-0.8,0-1.8,0.4-2.2,0.7V14
			c0.4,0.2,1.3,0.6,2.2,0.6c1.5,0,2.1-0.8,2.2-2.1c0-0.5,0-1.5,0-2.1C157.3,8.9,156.6,8.1,155.2,8.1z M164.8,4.1
			c-0.9,0-1.6-0.7-1.6-1.6s0.7-1.6,1.6-1.6c0.9,0,1.6,0.7,1.6,1.6S165.7,4.1,164.8,4.1z M166.3,6.9v8.9c0,0.8-0.6,1.5-1.5,1.5
			c-0.8,0-1.5-0.7-1.5-1.5V6.9c0-0.9,0.6-1.5,1.5-1.5C165.6,5.3,166.3,6,166.3,6.9z M173.4,17.4c-2.7,0-4-1.9-4-4.3V4.4
			c0-0.9,0.6-1.5,1.5-1.5c0.8,0,1.5,0.7,1.5,1.5v1.5h2.8c0.7,0,1.4,0.6,1.4,1.3s-0.6,1.3-1.4,1.3h-2.8V13c0,1.1,0.5,1.6,1.4,1.6
			c0.5,0,1-0.1,1.4-0.2c1.1-0.3,1.8,0.4,1.8,1.3c0,0.5-0.2,1-0.9,1.3C175.3,17.3,174.3,17.4,173.4,17.4z M188.2,15.1
			c0,0.5-0.1,0.8-0.5,1c-0.6,0.4-2.2,1.2-4.6,1.2c-3.2,0-4.6-1.8-4.6-3.9c0-1.9,1.3-3.6,4.5-3.6c1,0,1.6,0.1,2.4,0.3V9.5
			c0-1.1-0.6-1.7-2.1-1.7c-0.8,0-1.6,0.2-2.1,0.4c-1.3,0.4-2-0.2-2-1.1c0-0.5,0.2-1,1-1.3c0.6-0.3,1.9-0.6,3.2-0.6
			c3.1,0,4.9,1.4,4.9,4.5v5.4H188.2z M185.4,14.3v-2c-0.7-0.2-1.4-0.4-2.2-0.4c-1.2,0-1.9,0.6-1.9,1.4c0,1,0.8,1.5,2,1.5
			S185.1,14.5,185.4,14.3z M194.2,3v12.8c0,0.8-0.6,1.5-1.5,1.5c-0.8,0-1.5-0.7-1.5-1.5V3c0-0.9,0.6-1.5,1.5-1.5
			C193.5,1.4,194.2,2.1,194.2,3z M6.3,39.4c-2.9,0-5.1-1.8-5.3-4.5c0-0.9,0-2.2,0-3.1c0.2-2.6,2.4-4.5,5.3-4.5s5,1.8,5.3,4.5
			c0.1,0.9,0.1,2.2,0,3.1C11.3,37.5,9.2,39.4,6.3,39.4z M8.6,32.2c-0.1-1.3-0.9-2.1-2.3-2.1S4.1,31,3.9,32.2c0,0.6,0,1.6,0,2.2
			c0.1,1.3,1,2.1,2.4,2.1s2.2-0.9,2.3-2.1C8.7,33.9,8.7,32.8,8.6,32.2z M15.2,27.3c0-2.7,1.5-4.1,3.9-4.1c0.8,0,1.7,0.1,2.2,0.3
			c0.7,0.2,1.1,0.7,1.1,1.4c0,0.7-0.5,1.3-1.4,1.3c-0.5,0-1-0.2-1.7-0.2c-0.8,0-1.3,0.5-1.3,1.4v0.5h2.6c0.7,0,1.3,0.5,1.3,1.3
			c0,0.7-0.6,1.3-1.3,1.3H18v7.3c0,0.9-0.6,1.6-1.5,1.6c-0.8,0-1.5-0.7-1.5-1.6v-7.3h-0.5c-0.8,0-1.4-0.6-1.4-1.3
			c0-0.8,0.6-1.3,1.4-1.3H15v-0.6H15.2z M33.6,34.2v3.6c0,0.8-0.7,1.6-1.5,1.6c-0.8,0-1.5-0.7-1.5-1.6V25.6c0-1.1,0.7-2,2-2H37
			c2.9,0,5.4,1.9,5.4,5.2S40,34,36.8,34h-3.2V34.2z M36.7,31.2c1.8,0,2.6-0.9,2.6-2.3c0-1.5-0.8-2.3-2.6-2.3h-3.2v4.6H36.7z
			 M47.6,28.1c0.5-0.4,1.6-0.9,2.8-0.9c2.8,0,4.4,1.7,4.4,4.8v5.7c0,0.9-0.6,1.6-1.5,1.6c-0.8,0-1.5-0.7-1.5-1.6v-5.5
			c0-1.3-0.8-2.1-2-2.1c-0.9,0-1.8,0.4-2.3,0.9v6.7c0,0.8-0.6,1.5-1.5,1.5c-0.8,0-1.5-0.7-1.5-1.5V24.9c0-0.9,0.6-1.5,1.5-1.5
			c0.8,0,1.5,0.7,1.5,1.5L47.6,28.1L47.6,28.1z M59.4,26.1c-0.9,0-1.6-0.7-1.6-1.6s0.7-1.6,1.6-1.6c0.9,0,1.6,0.7,1.6,1.6
			S60.3,26.1,59.4,26.1z M60.9,28.9v8.9c0,0.8-0.6,1.5-1.5,1.5c-0.8,0-1.5-0.7-1.5-1.5v-8.9c0-0.9,0.6-1.5,1.5-1.5
			C60.2,27.4,60.9,28,60.9,28.9z M67.1,25v12.8c0,0.8-0.6,1.5-1.5,1.5c-0.8,0-1.5-0.7-1.5-1.5V25c0-0.9,0.6-1.5,1.5-1.5
			C66.5,23.4,67.1,24.1,67.1,25z M79.6,37.1c0,0.5-0.1,0.8-0.5,1c-0.6,0.4-2.2,1.2-4.6,1.2c-3.2,0-4.6-1.8-4.6-3.9
			c0-1.9,1.3-3.6,4.5-3.6c1,0,1.6,0.1,2.4,0.3v-0.6c0-1.1-0.6-1.7-2.1-1.7c-0.8,0-1.6,0.2-2.1,0.4c-1.3,0.4-2-0.2-2-1.1
			c0-0.5,0.2-1,1-1.3c0.6-0.3,1.9-0.6,3.2-0.6c3.1,0,4.9,1.4,4.9,4.5L79.6,37.1L79.6,37.1z M76.7,36.3v-2c-0.7-0.2-1.4-0.4-2.2-0.4
			c-1.2,0-1.9,0.6-1.9,1.4c0,1,0.8,1.5,2,1.5C75.8,36.9,76.5,36.5,76.7,36.3z M87.1,27.3c0.9,0,1.9,0.3,2.6,0.6V25
			c0-0.9,0.7-1.5,1.5-1.5c0.8,0,1.5,0.7,1.5,1.5v12c0,0.5-0.1,0.8-0.5,1c-0.6,0.4-2.4,1.4-4.6,1.4c-3.1,0-5-1.9-5.2-4.6
			c-0.1-0.8-0.1-2.2,0-3C82.5,29,84.2,27.3,87.1,27.3z M87.5,36.6c0.8,0,1.8-0.4,2.1-0.7v-5.2c-0.4-0.2-1.3-0.6-2.3-0.6
			c-1.4,0-2.1,0.8-2.2,2.1c0,0.5,0,1.5,0,2.1C85.3,35.8,86.1,36.6,87.5,36.6z M105.8,32.9c0,0.9-0.4,1.5-1.5,1.5h-5.9v0.2
			c0,1.4,1.1,2.1,2.5,2.1c0.8,0,1.6-0.2,2.4-0.5c1.2-0.4,1.9,0.4,1.9,1.2c0,0.4-0.2,0.9-0.7,1.2c-0.8,0.5-2.2,0.8-3.6,0.8
			c-3,0-5.1-1.9-5.3-4.7c-0.1-0.9,0-2.1,0-2.8c0.3-2.9,2.3-4.7,5.2-4.7c3,0,5,2,5,5.1V32.9z M102.7,32.3c0.2,0,0.2-0.1,0.2-0.3
			c0.1-1.3-0.8-2.2-2.2-2.2c-1.6,0-2.3,1-2.3,2.5H102.7z M111.4,25v12.8c0,0.8-0.6,1.5-1.5,1.5c-0.8,0-1.5-0.7-1.5-1.5V25
			c0-0.9,0.6-1.5,1.5-1.5C110.7,23.4,111.4,24.1,111.4,25z M119.9,39.4c-1,0-1.7-0.2-2.5-0.6v3.3c0,0.9-0.7,1.5-1.5,1.5
			c-0.8,0-1.5-0.7-1.5-1.5V29.5c0-0.3,0.1-0.6,0.4-0.7c0.7-0.5,2.5-1.4,4.8-1.4c3,0,4.9,1.9,5.2,4.6c0.1,0.8,0.1,2.2,0,3
			C124.6,37.6,122.9,39.4,119.9,39.4z M119.6,30.1c-0.8,0-1.8,0.4-2.2,0.7V36c0.4,0.2,1.3,0.6,2.2,0.6c1.5,0,2.1-0.8,2.2-2.1
			c0-0.5,0-1.5,0-2.1C121.8,30.9,121,30.1,119.6,30.1z M130.6,28.1c0.5-0.4,1.6-0.9,2.8-0.9c2.8,0,4.4,1.7,4.4,4.8v5.7
			c0,0.9-0.6,1.6-1.5,1.6c-0.8,0-1.5-0.7-1.5-1.6v-5.5c0-1.3-0.8-2.1-2-2.1c-0.9,0-1.8,0.4-2.3,0.9v6.7c0,0.8-0.6,1.5-1.5,1.5
			c-0.8,0-1.5-0.7-1.5-1.5V24.9c0-0.9,0.6-1.5,1.5-1.5c0.8,0,1.5,0.7,1.5,1.5v3.2H130.6z M142.5,26.1c-0.9,0-1.6-0.7-1.6-1.6
			s0.7-1.6,1.6-1.6s1.6,0.7,1.6,1.6C144,25.4,143.3,26.1,142.5,26.1z M143.9,28.9v8.9c0,0.8-0.6,1.5-1.5,1.5c-0.8,0-1.5-0.7-1.5-1.5
			v-8.9c0-0.9,0.6-1.5,1.5-1.5C143.3,27.4,143.9,28,143.9,28.9z M156.5,37.1c0,0.5-0.1,0.8-0.5,1c-0.6,0.4-2.2,1.2-4.6,1.2
			c-3.2,0-4.6-1.8-4.6-3.9c0-1.9,1.3-3.6,4.5-3.6c1,0,1.6,0.1,2.4,0.3v-0.6c0-1.1-0.6-1.7-2.1-1.7c-0.8,0-1.6,0.2-2.1,0.4
			c-1.3,0.4-2-0.2-2-1.1c0-0.5,0.2-1,1-1.3c0.6-0.3,1.9-0.6,3.2-0.6c3.1,0,4.9,1.4,4.9,4.5v5.4H156.5z M153.6,36.3v-2
			c-0.7-0.2-1.4-0.4-2.2-0.4c-1.2,0-1.9,0.6-1.9,1.4c0,1,0.8,1.5,2,1.5C152.7,36.9,153.4,36.5,153.6,36.3z"/>
	</g>
	<path class="st1" d="M233.8,44.3c-1.1,0-1.9-0.8-1.9-1.7c0-0.2,0-0.4,0-0.6c0-1,0.9-1.7,1.9-1.7s1.9,0.7,1.9,1.7c0,0.2,0,0.4,0,0.6
		C235.7,43.6,234.8,44.3,233.8,44.3z M235.3,42c-0.1-0.8-0.7-1.4-1.5-1.4s-1.4,0.5-1.5,1.4c0,0.2,0,0.4,0,0.6
		c0.1,0.8,0.7,1.4,1.5,1.4s1.4-0.5,1.5-1.4C235.3,42.4,235.3,42.2,235.3,42z M233.8,42.6c0-0.1-0.1-0.1-0.1-0.1h-0.3v0.6
		c0,0.1-0.1,0.2-0.2,0.2c-0.1,0-0.2-0.1-0.2-0.2v-1.7c0-0.1,0.1-0.2,0.3-0.2h0.7c0.4,0,0.8,0.2,0.8,0.6c0,0.3-0.2,0.5-0.5,0.6
		l0.5,0.6l0.1,0.1c0,0.1-0.1,0.2-0.2,0.2c-0.1,0-0.1,0-0.1-0.1L233.8,42.6z M233.9,42.2c0.3,0,0.4-0.1,0.4-0.3
		c0-0.2-0.1-0.3-0.4-0.3h-0.5v0.6H233.9z"/>
</g>
</svg>
