<?xml version="1.0" encoding="utf-8"?>
<!-- Generator: Adobe Illustrator 19.0.0, SVG Export Plug-In . SVG Version: 6.00 Build 0)  -->
<svg version="1.1" id="layer" xmlns="http://www.w3.org/2000/svg" xmlns:xlink="http://www.w3.org/1999/xlink" x="0px" y="0px"
	 viewBox="-153 -46 652 652" style="enable-background:new -153 -46 652 652;" xml:space="preserve">
<style type="text/css">
	.st0{fill:#53555A;}
	.st1{clip-path:url(#SVGID_4_);fill:url(#SVGID_5_);}
	.st2{clip-path:url(#SVGID_7_);fill:url(#SVGID_8_);}
	.st3{clip-path:url(#SVGID_10_);fill:url(#SVGID_11_);}
	.st4{clip-path:url(#SVGID_13_);fill:url(#SVGID_14_);}
	.st5{clip-path:url(#SVGID_18_);fill:url(#SVGID_19_);}
	.st6{clip-path:url(#SVGID_21_);fill:url(#SVGID_22_);}
	.st7{clip-path:url(#SVGID_24_);fill:url(#SVGID_25_);}
	.st8{clip-path:url(#SVGID_27_);fill:url(#SVGID_28_);}
	.st9{clip-path:url(#SVGID_32_);fill:url(#SVGID_33_);}
	.st10{clip-path:url(#SVGID_35_);fill:url(#SVGID_36_);}
	.st11{clip-path:url(#SVGID_38_);fill:url(#SVGID_39_);}
	.st12{clip-path:url(#SVGID_41_);fill:url(#SVGID_42_);}
	.st13{clip-path:url(#SVGID_46_);fill:url(#SVGID_47_);}
	.st14{clip-path:url(#SVGID_49_);fill:url(#SVGID_50_);}
	.st15{clip-path:url(#SVGID_52_);fill:url(#SVGID_53_);}
	.st16{clip-path:url(#SVGID_55_);fill:url(#SVGID_56_);}
	.st17{clip-path:url(#SVGID_60_);fill:url(#SVGID_61_);}
	.st18{clip-path:url(#SVGID_63_);fill:url(#SVGID_64_);}
	.st19{clip-path:url(#SVGID_66_);fill:url(#SVGID_67_);}
	.st20{clip-path:url(#SVGID_69_);fill:url(#SVGID_70_);}
</style>
<g>
	<path class="st0" d="M447.8,239.7v6.3h-0.2c-2.1-3.5-6.3-7.2-14.1-7.2c-10.5,0-20.5,7.9-20.5,22.1c0,11.6,8,20.4,19.3,20.4
		c7,0,12-3.1,14.4-7h0.2v17c0,10.6-8.7,14.4-17.1,14.4h-560.9v6.2h560.9v-0.1c0.7,0,1.5,0.1,2.2,0.1c5.7,0,12.1-1.3,16.5-5
		c4.3-3.7,6.4-9.5,6.4-19.2v-48.1H447.8z M446.7,263.7c0,1.3-0.2,2.8-0.7,4.1c-1.7,4.8-6.3,7.8-11.4,7.8c-8.8,0-13.4-6.8-13.4-15
		c0-9.7,5.6-15.8,13.5-15.8c6.1,0,10,3.6,11.5,8.1c0.4,0.9,0.5,2.1,0.5,3.4V263.7z"/>
	<path class="st0" d="M316.9,228.9c0,2.8-2.3,5.1-5.1,5.1c-2.8,0-5.1-2.3-5.1-5.1c0-2.8,2.3-5.1,5.1-5.1
		C314.6,223.8,316.9,226.1,316.9,228.9"/>
	<path class="st0" d="M-131.1,251c0-4.4-0.1-7.9-0.4-11.3h7.3l0.5,6.9h0.2c2.2-3.9,7.5-7.8,15-7.8c6.3,0,16,3.5,16,17.8v24.9h-8.2
		v-24.1c0-6.7-2.7-12.3-10.5-12.3c-5.3,0-9.5,3.5-11,7.8c-0.4,0.9-0.6,2.2-0.6,3.5v25.1h-8.2V251z"/>
	<path class="st0" d="M-28.8,271.5c0,3.6,0.2,7.2,0.7,10h-7.4l-0.7-5.3h-0.3c-2.5,3.3-7.4,6.2-13.8,6.2c-9.2,0-13.8-5.9-13.8-12
		c0-10.1,9.7-15.6,27.2-15.5V254c0-3.4-1-9.7-10.3-9.6c-4.3,0-8.7,1.1-11.9,3.1l-1.9-5.1c3.7-2.2,9.3-3.6,15-3.6
		c13.8,0,17.2,8.7,17.2,17V271.5z M-36.7,260.2c-9-0.2-19.2,1.3-19.2,9.4c0,5,3.5,7.2,7.7,7.2c6,0,9.8-3.4,11.1-7
		c0.3-0.9,0.4-1.7,0.4-2.4V260.2z"/>
	<path class="st0" d="M3.2,251c0-4.4-0.1-7.9-0.4-11.3h7.3l0.5,6.9h0.2c2.2-3.9,7.5-7.8,15-7.8c6.3,0,16,3.5,16,17.8v24.9h-8.2
		v-24.1c0-6.7-2.7-12.3-10.5-12.3c-5.3,0-9.5,3.5-11,7.8c-0.4,0.9-0.6,2.2-0.6,3.5v25.1H3.2V251z"/>
	<path class="st0" d="M114.8,260.3c0,15.4-11.7,22.2-22.5,22.2c-12.2,0-21.7-8.3-21.7-21.5c0-13.9,10-22.1,22.4-22.1
		C106,238.9,114.8,247.6,114.8,260.3 M79,260.7c0,9.1,5.6,16,13.6,16c7.9,0,13.7-6.8,13.7-16.2c0-7.1-3.8-16-13.6-16
		C83.2,244.6,79,252.8,79,260.7"/>
	<path class="st0" d="M143.1,272.3c3.6,2.2,8.9,3.8,14.5,3.8c8.3,0,13.2-4.1,13.2-9.9c0-5.3-3.4-8.5-11.9-11.5
		c-10.3-3.5-16.6-8.4-16.6-16.6c0-9.1,8.1-15.8,20.4-15.8c6.3,0,11.1,1.4,13.8,2.8l-2.2,6.1c-2-1.1-6.2-2.8-11.9-2.8
		c-8.6,0-11.9,4.8-11.9,8.7c0,5.4,3.8,8.1,12.5,11.2c10.7,3.8,16,8.5,16,17.1c0,9-7.1,16.8-22,16.8c-6.1,0-12.7-1.7-16.1-3.8
		L143.1,272.3z"/>
	<path class="st0" d="M218.3,229.7v10H230v5.8h-11.8V268c0,5.2,1.6,8.1,6.2,8.1c2.2,0,3.6-0.2,4.8-0.5l0.4,5.8c-1.6,0.5-4.1,1-7.3,1
		c-3.8,0-6.9-1.2-8.9-3.2c-2.2-2.3-3.2-6-3.2-11v-22.8h-7v-5.8h7V232L218.3,229.7z"/>
	<path class="st0" d="M258,252.8c0-4.9-0.1-9.1-0.4-13h7.2l0.4,8.3h0.3c2.1-5.6,7.1-9.1,12.6-9.1c0.8,0,1.5,0.1,2.2,0.2v7.2
		c-0.8-0.2-1.7-0.2-2.8-0.2c-5.8,0-9.9,4-11,9.7c-0.2,1-0.3,2.3-0.3,3.5v22.3H258V252.8z"/>
	<rect x="307.7" y="239.7" class="st0" width="8.2" height="41.8"/>
	<path class="st0" d="M348.2,251c0-4.4-0.1-7.9-0.4-11.3h7.3l0.5,6.9h0.2c2.2-3.9,7.5-7.8,15-7.8c6.3,0,16,3.5,16,17.8v24.9h-8.2
		v-24.1c0-6.7-2.7-12.3-10.5-12.3c-5.3,0-9.5,3.5-11,7.8c-0.4,0.9-0.6,2.2-0.6,3.5v25.1h-8.2V251z"/>
</g>
<g>
	<defs>
		<path id="SVGID_1_" d="M131.1,309.2c0,9.6,7.8,17.5,17.5,17.5c9.6,0,17.5-7.8,17.5-17.5c0-9.6-7.8-17.5-17.5-17.5
			C139,291.7,131.1,299.5,131.1,309.2"/>
	</defs>
	<clipPath id="SVGID_2_">
		<use xlink:href="#SVGID_1_"  style="overflow:visible;"/>
	</clipPath>
</g>
<g>
	<defs>
		<path id="SVGID_3_" d="M131.4,309.2c0,9.5,7.7,17.3,17.3,17.3c9.5,0,17.3-7.7,17.3-17.3c0-9.5-7.7-17.3-17.3-17.3
			C139.1,291.9,131.4,299.6,131.4,309.2"/>
	</defs>
	<clipPath id="SVGID_4_">
		<use xlink:href="#SVGID_3_"  style="overflow:visible;"/>
	</clipPath>
	
		<radialGradient id="SVGID_5_" cx="-178.5343" cy="747.8576" r="4.1827" gradientTransform="matrix(4.4081 0 0 -4.4081 935.6159 3606.9678)" gradientUnits="userSpaceOnUse">
		<stop  offset="0" style="stop-color:#DDE89A"/>
		<stop  offset="0.3076" style="stop-color:#DCE798"/>
		<stop  offset="0.4188" style="stop-color:#D8E691"/>
		<stop  offset="0.4981" style="stop-color:#D1E285"/>
		<stop  offset="0.5622" style="stop-color:#C8DE75"/>
		<stop  offset="0.6171" style="stop-color:#BBD85F"/>
		<stop  offset="0.665" style="stop-color:#ACD144"/>
		<stop  offset="0.6798" style="stop-color:#A6CE3A"/>
		<stop  offset="0.7495" style="stop-color:#A8CF3E"/>
		<stop  offset="0.823" style="stop-color:#ADD14B"/>
		<stop  offset="0.8982" style="stop-color:#B5D660"/>
		<stop  offset="0.9742" style="stop-color:#C0DC7D"/>
		<stop  offset="1" style="stop-color:#C5DE89"/>
	</radialGradient>
	<rect x="131.4" y="291.9" class="st1" width="34.5" height="34.5"/>
</g>
<g>
	<defs>
		<path id="SVGID_6_" d="M162,302.9c0.4,1.2,0.6,2.5,0.6,3.9c0,7.7-6.2,13.9-13.9,13.9c-1.9,0-3.8-0.4-5.5-1.1
			c-3.7,0.6-7,0.1-9.4-1.6c3,5.1,8.5,8.4,14.8,8.4c9.5,0,17.3-7.7,17.3-17.3c0-4.2-1.5-8-4-11C162.3,299.6,162.3,301.2,162,302.9"/>
	</defs>
	<clipPath id="SVGID_7_">
		<use xlink:href="#SVGID_6_"  style="overflow:visible;"/>
	</clipPath>
	
		<radialGradient id="SVGID_8_" cx="-178.5337" cy="747.8553" r="4.1829" gradientTransform="matrix(4.4082 0 0 -4.4082 935.6335 3607.0613)" gradientUnits="userSpaceOnUse">
		<stop  offset="0" style="stop-color:#A6CE3A"/>
		<stop  offset="0.4598" style="stop-color:#A8CF39"/>
		<stop  offset="0.639" style="stop-color:#AFD136"/>
		<stop  offset="0.7692" style="stop-color:#BBD631"/>
		<stop  offset="0.7921" style="stop-color:#BED730"/>
		<stop  offset="0.8281" style="stop-color:#BED735"/>
		<stop  offset="0.8701" style="stop-color:#BFD843"/>
		<stop  offset="0.9153" style="stop-color:#C0DA5B"/>
		<stop  offset="0.9623" style="stop-color:#C2DD7B"/>
		<stop  offset="1" style="stop-color:#C4DF9B"/>
	</radialGradient>
	<rect x="133.8" y="298.2" class="st2" width="32.1" height="28.3"/>
</g>
<g>
	<defs>
		<path id="SVGID_9_" d="M134,307.2c0,8.1,6.5,14.6,14.6,14.6c8.1,0,14.6-6.5,14.6-14.6c0-8.1-6.5-14.6-14.6-14.6
			C140.5,292.5,134,299.1,134,307.2"/>
	</defs>
	<clipPath id="SVGID_10_">
		<use xlink:href="#SVGID_9_"  style="overflow:visible;"/>
	</clipPath>
	
		<radialGradient id="SVGID_11_" cx="-156.812" cy="713.0812" r="4.1829" gradientTransform="matrix(8.2674 0 0 -8.2674 1445.0374 6219.0254)" gradientUnits="userSpaceOnUse">
		<stop  offset="0" style="stop-color:#A6CE3A"/>
		<stop  offset="5.617980e-003" style="stop-color:#A6CE3A"/>
		<stop  offset="0.2094" style="stop-color:#A8CF3D"/>
		<stop  offset="0.3733" style="stop-color:#ADD247"/>
		<stop  offset="0.5234" style="stop-color:#B6D658"/>
		<stop  offset="0.6652" style="stop-color:#C2DD70"/>
		<stop  offset="0.8011" style="stop-color:#D2E58F"/>
		<stop  offset="0.931" style="stop-color:#E6EFB4"/>
		<stop  offset="1" style="stop-color:#F2F5CB"/>
	</radialGradient>
	<rect x="134" y="292.5" class="st3" width="29.2" height="29.2"/>
</g>
<g>
	<defs>
		<path id="SVGID_12_" d="M148.2,293.8c-4.4,0.2-9.8,3.3-10.4,7.9c-0.6,5,7.8,5.2,10.8,5.2c3,0,11.4-0.2,10.8-5.2
			c-0.6-4.7-6-7.7-10.4-7.9c-0.2,0-0.3,0-0.5,0C148.5,293.7,148.3,293.7,148.2,293.8"/>
	</defs>
	<clipPath id="SVGID_13_">
		<use xlink:href="#SVGID_12_"  style="overflow:visible;"/>
	</clipPath>
	
		<radialGradient id="SVGID_14_" cx="-158.0901" cy="715.1514" r="4.1829" gradientTransform="matrix(7.8643 0 0 -7.8643 1391.8149 5946.123)" gradientUnits="userSpaceOnUse">
		<stop  offset="0" style="stop-color:#BCD754"/>
		<stop  offset="0.3708" style="stop-color:#BCD754"/>
		<stop  offset="0.4787" style="stop-color:#CADF77"/>
		<stop  offset="0.6492" style="stop-color:#DEEBA8"/>
		<stop  offset="0.7991" style="stop-color:#EDF3CB"/>
		<stop  offset="0.9211" style="stop-color:#F6F8E1"/>
		<stop  offset="1" style="stop-color:#F9FAE9"/>
	</radialGradient>
	<rect x="137.2" y="293.7" class="st4" width="22.9" height="13.2"/>
</g>
<g>
	<defs>
		<path id="SVGID_15_" d="M223.3,309.2c0,9.6,7.8,17.5,17.5,17.5c9.6,0,17.5-7.8,17.5-17.5c0-9.6-7.8-17.5-17.5-17.5
			C231.1,291.7,223.3,299.5,223.3,309.2"/>
	</defs>
	<clipPath id="SVGID_16_">
		<use xlink:href="#SVGID_15_"  style="overflow:visible;"/>
	</clipPath>
</g>
<g>
	<defs>
		<path id="SVGID_17_" d="M223.5,309.2c0,9.5,7.7,17.3,17.3,17.3c9.5,0,17.3-7.7,17.3-17.3c0-9.5-7.7-17.3-17.3-17.3
			C231.2,291.9,223.5,299.6,223.5,309.2"/>
	</defs>
	<clipPath id="SVGID_18_">
		<use xlink:href="#SVGID_17_"  style="overflow:visible;"/>
	</clipPath>
	
		<radialGradient id="SVGID_19_" cx="-162.6273" cy="747.8576" r="4.1827" gradientTransform="matrix(4.4081 0 0 -4.4081 957.6464 3606.9678)" gradientUnits="userSpaceOnUse">
		<stop  offset="0" style="stop-color:#DDE89A"/>
		<stop  offset="0.3076" style="stop-color:#DCE798"/>
		<stop  offset="0.4188" style="stop-color:#D8E691"/>
		<stop  offset="0.4981" style="stop-color:#D1E285"/>
		<stop  offset="0.5622" style="stop-color:#C8DE75"/>
		<stop  offset="0.6171" style="stop-color:#BBD85F"/>
		<stop  offset="0.665" style="stop-color:#ACD144"/>
		<stop  offset="0.6798" style="stop-color:#A6CE3A"/>
		<stop  offset="0.7495" style="stop-color:#A8CF3E"/>
		<stop  offset="0.823" style="stop-color:#ADD14B"/>
		<stop  offset="0.8982" style="stop-color:#B5D660"/>
		<stop  offset="0.9742" style="stop-color:#C0DC7D"/>
		<stop  offset="1" style="stop-color:#C5DE89"/>
	</radialGradient>
	<rect x="223.5" y="291.9" class="st5" width="34.5" height="34.5"/>
</g>
<g>
	<defs>
		<path id="SVGID_20_" d="M254.1,302.9c0.4,1.2,0.6,2.5,0.6,3.9c0,7.7-6.2,13.9-13.9,13.9c-1.9,0-3.8-0.4-5.5-1.1
			c-3.7,0.6-7,0.1-9.4-1.6c3,5.1,8.5,8.4,14.8,8.4c9.5,0,17.3-7.7,17.3-17.3c0-4.2-1.5-8-4-11C254.5,299.6,254.5,301.2,254.1,302.9"
			/>
	</defs>
	<clipPath id="SVGID_21_">
		<use xlink:href="#SVGID_20_"  style="overflow:visible;"/>
	</clipPath>
	
		<radialGradient id="SVGID_22_" cx="-162.6271" cy="747.8553" r="4.1829" gradientTransform="matrix(4.4082 0 0 -4.4082 957.6639 3607.0613)" gradientUnits="userSpaceOnUse">
		<stop  offset="0" style="stop-color:#A6CE3A"/>
		<stop  offset="0.4598" style="stop-color:#A8CF39"/>
		<stop  offset="0.639" style="stop-color:#AFD136"/>
		<stop  offset="0.7692" style="stop-color:#BBD631"/>
		<stop  offset="0.7921" style="stop-color:#BED730"/>
		<stop  offset="0.8281" style="stop-color:#BED735"/>
		<stop  offset="0.8701" style="stop-color:#BFD843"/>
		<stop  offset="0.9153" style="stop-color:#C0DA5B"/>
		<stop  offset="0.9623" style="stop-color:#C2DD7B"/>
		<stop  offset="1" style="stop-color:#C4DF9B"/>
	</radialGradient>
	<rect x="225.9" y="298.2" class="st6" width="32.1" height="28.3"/>
</g>
<g>
	<defs>
		<path id="SVGID_23_" d="M226.1,307.2c0,8.1,6.5,14.6,14.6,14.6c8.1,0,14.6-6.5,14.6-14.6c0-8.1-6.5-14.6-14.6-14.6
			C232.7,292.5,226.1,299.1,226.1,307.2"/>
	</defs>
	<clipPath id="SVGID_24_">
		<use xlink:href="#SVGID_23_"  style="overflow:visible;"/>
	</clipPath>
	
		<radialGradient id="SVGID_25_" cx="-148.3305" cy="713.0812" r="4.1829" gradientTransform="matrix(8.2674 0 0 -8.2674 1467.0677 6219.0254)" gradientUnits="userSpaceOnUse">
		<stop  offset="0" style="stop-color:#A6CE3A"/>
		<stop  offset="5.617980e-003" style="stop-color:#A6CE3A"/>
		<stop  offset="0.2094" style="stop-color:#A8CF3D"/>
		<stop  offset="0.3733" style="stop-color:#ADD247"/>
		<stop  offset="0.5234" style="stop-color:#B6D658"/>
		<stop  offset="0.6652" style="stop-color:#C2DD70"/>
		<stop  offset="0.8011" style="stop-color:#D2E58F"/>
		<stop  offset="0.931" style="stop-color:#E6EFB4"/>
		<stop  offset="1" style="stop-color:#F2F5CB"/>
	</radialGradient>
	<rect x="226.1" y="292.5" class="st7" width="29.2" height="29.2"/>
</g>
<g>
	<defs>
		<path id="SVGID_26_" d="M240.3,293.8c-4.4,0.2-9.8,3.3-10.4,7.9c-0.6,5,7.8,5.2,10.8,5.2c3,0,11.4-0.2,10.8-5.2
			c-0.6-4.7-6-7.7-10.4-7.9c-0.2,0-0.3,0-0.5,0C240.6,293.7,240.5,293.7,240.3,293.8"/>
	</defs>
	<clipPath id="SVGID_27_">
		<use xlink:href="#SVGID_26_"  style="overflow:visible;"/>
	</clipPath>
	
		<radialGradient id="SVGID_28_" cx="-149.1738" cy="715.1514" r="4.1829" gradientTransform="matrix(7.8643 0 0 -7.8643 1413.8453 5946.123)" gradientUnits="userSpaceOnUse">
		<stop  offset="0" style="stop-color:#BCD754"/>
		<stop  offset="0.3708" style="stop-color:#BCD754"/>
		<stop  offset="0.4787" style="stop-color:#CADF77"/>
		<stop  offset="0.6492" style="stop-color:#DEEBA8"/>
		<stop  offset="0.7991" style="stop-color:#EDF3CB"/>
		<stop  offset="0.9211" style="stop-color:#F6F8E1"/>
		<stop  offset="1" style="stop-color:#F9FAE9"/>
	</radialGradient>
	<rect x="229.3" y="293.7" class="st8" width="22.9" height="13.2"/>
</g>
<g>
	<defs>
		<path id="SVGID_29_" d="M297.8,309.2c0,9.6,7.8,17.5,17.5,17.5c9.6,0,17.5-7.8,17.5-17.5c0-9.6-7.8-17.5-17.5-17.5
			C305.6,291.7,297.8,299.5,297.8,309.2"/>
	</defs>
	<clipPath id="SVGID_30_">
		<use xlink:href="#SVGID_29_"  style="overflow:visible;"/>
	</clipPath>
</g>
<g>
	<defs>
		<path id="SVGID_31_" d="M297.9,309.2c0,9.5,7.7,17.3,17.3,17.3c9.5,0,17.3-7.7,17.3-17.3c0-9.5-7.7-17.3-17.3-17.3
			C305.7,291.9,297.9,299.6,297.9,309.2"/>
	</defs>
	<clipPath id="SVGID_32_">
		<use xlink:href="#SVGID_31_"  style="overflow:visible;"/>
	</clipPath>
	
		<radialGradient id="SVGID_33_" cx="-149.7767" cy="747.8576" r="4.183" gradientTransform="matrix(4.4081 0 0 -4.4081 975.4445 3606.9678)" gradientUnits="userSpaceOnUse">
		<stop  offset="0" style="stop-color:#DDE89A"/>
		<stop  offset="0.3076" style="stop-color:#DCE798"/>
		<stop  offset="0.4188" style="stop-color:#D8E691"/>
		<stop  offset="0.4981" style="stop-color:#D1E285"/>
		<stop  offset="0.5622" style="stop-color:#C8DE75"/>
		<stop  offset="0.6171" style="stop-color:#BBD85F"/>
		<stop  offset="0.665" style="stop-color:#ACD144"/>
		<stop  offset="0.6798" style="stop-color:#A6CE3A"/>
		<stop  offset="0.7495" style="stop-color:#A8CF3E"/>
		<stop  offset="0.823" style="stop-color:#ADD14B"/>
		<stop  offset="0.8982" style="stop-color:#B5D660"/>
		<stop  offset="0.9742" style="stop-color:#C0DC7D"/>
		<stop  offset="1" style="stop-color:#C5DE89"/>
	</radialGradient>
	<rect x="297.9" y="291.9" class="st9" width="34.5" height="34.5"/>
</g>
<g>
	<defs>
		<path id="SVGID_34_" d="M328.6,302.9c0.4,1.2,0.6,2.5,0.6,3.9c0,7.7-6.2,13.9-13.9,13.9c-1.9,0-3.8-0.4-5.5-1.1
			c-3.7,0.6-7,0.1-9.4-1.6c3,5.1,8.5,8.4,14.8,8.4c9.5,0,17.3-7.7,17.3-17.3c0-4.2-1.5-8-4-11C328.9,299.6,328.9,301.2,328.6,302.9"
			/>
	</defs>
	<clipPath id="SVGID_35_">
		<use xlink:href="#SVGID_34_"  style="overflow:visible;"/>
	</clipPath>
	
		<radialGradient id="SVGID_36_" cx="-149.7765" cy="747.8555" r="4.1829" gradientTransform="matrix(4.4082 0 0 -4.4082 975.4612 3607.0566)" gradientUnits="userSpaceOnUse">
		<stop  offset="0" style="stop-color:#A6CE3A"/>
		<stop  offset="0.4598" style="stop-color:#A8CF39"/>
		<stop  offset="0.639" style="stop-color:#AFD136"/>
		<stop  offset="0.7692" style="stop-color:#BBD631"/>
		<stop  offset="0.7921" style="stop-color:#BED730"/>
		<stop  offset="0.8281" style="stop-color:#BED735"/>
		<stop  offset="0.8701" style="stop-color:#BFD843"/>
		<stop  offset="0.9153" style="stop-color:#C0DA5B"/>
		<stop  offset="0.9623" style="stop-color:#C2DD7B"/>
		<stop  offset="1" style="stop-color:#C4DF9B"/>
	</radialGradient>
	<rect x="300.4" y="298.2" class="st10" width="32.1" height="28.3"/>
</g>
<g>
	<defs>
		<path id="SVGID_37_" d="M300.6,307.2c0,8.1,6.5,14.6,14.6,14.6c8.1,0,14.6-6.5,14.6-14.6c0-8.1-6.5-14.6-14.6-14.6
			C307.1,292.5,300.6,299.1,300.6,307.2"/>
	</defs>
	<clipPath id="SVGID_38_">
		<use xlink:href="#SVGID_37_"  style="overflow:visible;"/>
	</clipPath>
	
		<radialGradient id="SVGID_39_" cx="-141.4787" cy="713.0812" r="4.183" gradientTransform="matrix(8.2674 0 0 -8.2674 1484.866 6219.0254)" gradientUnits="userSpaceOnUse">
		<stop  offset="0" style="stop-color:#A6CE3A"/>
		<stop  offset="5.617980e-003" style="stop-color:#A6CE3A"/>
		<stop  offset="0.2094" style="stop-color:#A8CF3D"/>
		<stop  offset="0.3733" style="stop-color:#ADD247"/>
		<stop  offset="0.5234" style="stop-color:#B6D658"/>
		<stop  offset="0.6652" style="stop-color:#C2DD70"/>
		<stop  offset="0.8011" style="stop-color:#D2E58F"/>
		<stop  offset="0.931" style="stop-color:#E6EFB4"/>
		<stop  offset="1" style="stop-color:#F2F5CB"/>
	</radialGradient>
	<rect x="300.6" y="292.5" class="st11" width="29.2" height="29.2"/>
</g>
<g>
	<defs>
		<path id="SVGID_40_" d="M314.7,293.8c-4.4,0.2-9.8,3.3-10.4,7.9c-0.6,5,7.8,5.2,10.8,5.2c3,0,11.4-0.2,10.8-5.2
			c-0.6-4.7-6-7.7-10.4-7.9c-0.2,0-0.3,0-0.5,0C315.1,293.7,314.9,293.7,314.7,293.8"/>
	</defs>
	<clipPath id="SVGID_41_">
		<use xlink:href="#SVGID_40_"  style="overflow:visible;"/>
	</clipPath>
	
		<radialGradient id="SVGID_42_" cx="-141.9707" cy="715.1514" r="4.1829" gradientTransform="matrix(7.8643 0 0 -7.8643 1431.6428 5946.123)" gradientUnits="userSpaceOnUse">
		<stop  offset="0" style="stop-color:#BCD754"/>
		<stop  offset="0.3708" style="stop-color:#BCD754"/>
		<stop  offset="0.4787" style="stop-color:#CADF77"/>
		<stop  offset="0.6492" style="stop-color:#DEEBA8"/>
		<stop  offset="0.7991" style="stop-color:#EDF3CB"/>
		<stop  offset="0.9211" style="stop-color:#F6F8E1"/>
		<stop  offset="1" style="stop-color:#F9FAE9"/>
	</radialGradient>
	<rect x="303.8" y="293.7" class="st12" width="22.9" height="13.2"/>
</g>
<g>
	<defs>
		<path id="SVGID_43_" d="M360.4,309.2c0,9.6,7.8,17.5,17.5,17.5c9.6,0,17.5-7.8,17.5-17.5c0-9.6-7.8-17.5-17.5-17.5
			C368.2,291.7,360.4,299.5,360.4,309.2"/>
	</defs>
	<clipPath id="SVGID_44_">
		<use xlink:href="#SVGID_43_"  style="overflow:visible;"/>
	</clipPath>
</g>
<g>
	<defs>
		<path id="SVGID_45_" d="M360.6,309.2c0,9.5,7.7,17.3,17.3,17.3c9.5,0,17.3-7.7,17.3-17.3c0-9.5-7.7-17.3-17.3-17.3
			C368.3,291.9,360.6,299.6,360.6,309.2"/>
	</defs>
	<clipPath id="SVGID_46_">
		<use xlink:href="#SVGID_45_"  style="overflow:visible;"/>
	</clipPath>
	
		<radialGradient id="SVGID_47_" cx="-138.9681" cy="747.8576" r="4.183" gradientTransform="matrix(4.4081 0 0 -4.4081 990.4139 3606.9678)" gradientUnits="userSpaceOnUse">
		<stop  offset="0" style="stop-color:#DDE89A"/>
		<stop  offset="0.3076" style="stop-color:#DCE798"/>
		<stop  offset="0.4188" style="stop-color:#D8E691"/>
		<stop  offset="0.4981" style="stop-color:#D1E285"/>
		<stop  offset="0.5622" style="stop-color:#C8DE75"/>
		<stop  offset="0.6171" style="stop-color:#BBD85F"/>
		<stop  offset="0.665" style="stop-color:#ACD144"/>
		<stop  offset="0.6798" style="stop-color:#A6CE3A"/>
		<stop  offset="0.7495" style="stop-color:#A8CF3E"/>
		<stop  offset="0.823" style="stop-color:#ADD14B"/>
		<stop  offset="0.8982" style="stop-color:#B5D660"/>
		<stop  offset="0.9742" style="stop-color:#C0DC7D"/>
		<stop  offset="1" style="stop-color:#C5DE89"/>
	</radialGradient>
	<rect x="360.6" y="291.9" class="st13" width="34.5" height="34.5"/>
</g>
<g>
	<defs>
		<path id="SVGID_48_" d="M391.2,302.9c0.4,1.2,0.6,2.5,0.6,3.9c0,7.7-6.2,13.9-13.9,13.9c-1.9,0-3.8-0.4-5.5-1.1
			c-3.7,0.6-7,0.1-9.4-1.6c3,5.1,8.5,8.4,14.8,8.4c9.5,0,17.3-7.7,17.3-17.3c0-4.2-1.5-8-4-11C391.5,299.6,391.5,301.2,391.2,302.9"
			/>
	</defs>
	<clipPath id="SVGID_49_">
		<use xlink:href="#SVGID_48_"  style="overflow:visible;"/>
	</clipPath>
	
		<radialGradient id="SVGID_50_" cx="-138.9682" cy="747.8553" r="4.1829" gradientTransform="matrix(4.4082 0 0 -4.4082 990.4315 3607.0613)" gradientUnits="userSpaceOnUse">
		<stop  offset="0" style="stop-color:#A6CE3A"/>
		<stop  offset="0.4598" style="stop-color:#A8CF39"/>
		<stop  offset="0.639" style="stop-color:#AFD136"/>
		<stop  offset="0.7692" style="stop-color:#BBD631"/>
		<stop  offset="0.7921" style="stop-color:#BED730"/>
		<stop  offset="0.8281" style="stop-color:#BED735"/>
		<stop  offset="0.8701" style="stop-color:#BFD843"/>
		<stop  offset="0.9153" style="stop-color:#C0DA5B"/>
		<stop  offset="0.9623" style="stop-color:#C2DD7B"/>
		<stop  offset="1" style="stop-color:#C4DF9B"/>
	</radialGradient>
	<rect x="363" y="298.2" class="st14" width="32.1" height="28.3"/>
</g>
<g>
	<defs>
		<path id="SVGID_51_" d="M363.2,307.2c0,8.1,6.5,14.6,14.6,14.6c8.1,0,14.6-6.5,14.6-14.6c0-8.1-6.6-14.6-14.6-14.6
			C369.8,292.5,363.2,299.1,363.2,307.2"/>
	</defs>
	<clipPath id="SVGID_52_">
		<use xlink:href="#SVGID_51_"  style="overflow:visible;"/>
	</clipPath>
	
		<radialGradient id="SVGID_53_" cx="-135.7154" cy="713.0815" r="4.1829" gradientTransform="matrix(8.2673 0 0 -8.2673 1499.8271 6218.9829)" gradientUnits="userSpaceOnUse">
		<stop  offset="0" style="stop-color:#A6CE3A"/>
		<stop  offset="5.617980e-003" style="stop-color:#A6CE3A"/>
		<stop  offset="0.2094" style="stop-color:#A8CF3D"/>
		<stop  offset="0.3733" style="stop-color:#ADD247"/>
		<stop  offset="0.5234" style="stop-color:#B6D658"/>
		<stop  offset="0.6652" style="stop-color:#C2DD70"/>
		<stop  offset="0.8011" style="stop-color:#D2E58F"/>
		<stop  offset="0.931" style="stop-color:#E6EFB4"/>
		<stop  offset="1" style="stop-color:#F2F5CB"/>
	</radialGradient>
	<rect x="363.2" y="292.5" class="st15" width="29.2" height="29.2"/>
</g>
<g>
	<defs>
		<path id="SVGID_54_" d="M377.4,293.8c-4.4,0.2-9.8,3.3-10.4,7.9c-0.6,5,7.8,5.2,10.8,5.2c3,0,11.4-0.2,10.8-5.2
			c-0.6-4.7-6-7.7-10.4-7.9c-0.2,0-0.3,0-0.5,0C377.7,293.7,377.5,293.7,377.4,293.8"/>
	</defs>
	<clipPath id="SVGID_55_">
		<use xlink:href="#SVGID_54_"  style="overflow:visible;"/>
	</clipPath>
	
		<radialGradient id="SVGID_56_" cx="-135.9122" cy="715.1514" r="4.1829" gradientTransform="matrix(7.8643 0 0 -7.8643 1446.6123 5946.123)" gradientUnits="userSpaceOnUse">
		<stop  offset="0" style="stop-color:#BCD754"/>
		<stop  offset="0.3708" style="stop-color:#BCD754"/>
		<stop  offset="0.4787" style="stop-color:#CADF77"/>
		<stop  offset="0.6492" style="stop-color:#DEEBA8"/>
		<stop  offset="0.7991" style="stop-color:#EDF3CB"/>
		<stop  offset="0.9211" style="stop-color:#F6F8E1"/>
		<stop  offset="1" style="stop-color:#F9FAE9"/>
	</radialGradient>
	<rect x="366.4" y="293.7" class="st16" width="22.9" height="13.2"/>
</g>
<g>
	<defs>
		<path id="SVGID_57_" d="M401.7,309.2c0,9.6,7.8,17.5,17.5,17.5c9.6,0,17.5-7.8,17.5-17.5c0-9.6-7.8-17.5-17.5-17.5
			C409.5,291.7,401.7,299.5,401.7,309.2"/>
	</defs>
	<clipPath id="SVGID_58_">
		<use xlink:href="#SVGID_57_"  style="overflow:visible;"/>
	</clipPath>
</g>
<g>
	<defs>
		<path id="SVGID_59_" d="M401.9,309.2c0,9.5,7.7,17.3,17.3,17.3c9.5,0,17.3-7.7,17.3-17.3c0-9.5-7.7-17.3-17.3-17.3
			C409.6,291.9,401.9,299.6,401.9,309.2"/>
	</defs>
	<clipPath id="SVGID_60_">
		<use xlink:href="#SVGID_59_"  style="overflow:visible;"/>
	</clipPath>
	
		<radialGradient id="SVGID_61_" cx="-131.8375" cy="747.8576" r="4.1828" gradientTransform="matrix(4.4081 0 0 -4.4081 1000.2892 3606.9678)" gradientUnits="userSpaceOnUse">
		<stop  offset="0" style="stop-color:#DDE89A"/>
		<stop  offset="0.3076" style="stop-color:#DCE798"/>
		<stop  offset="0.4188" style="stop-color:#D8E691"/>
		<stop  offset="0.4981" style="stop-color:#D1E285"/>
		<stop  offset="0.5622" style="stop-color:#C8DE75"/>
		<stop  offset="0.6171" style="stop-color:#BBD85F"/>
		<stop  offset="0.665" style="stop-color:#ACD144"/>
		<stop  offset="0.6798" style="stop-color:#A6CE3A"/>
		<stop  offset="0.7495" style="stop-color:#A8CF3E"/>
		<stop  offset="0.823" style="stop-color:#ADD14B"/>
		<stop  offset="0.8982" style="stop-color:#B5D660"/>
		<stop  offset="0.9742" style="stop-color:#C0DC7D"/>
		<stop  offset="1" style="stop-color:#C5DE89"/>
	</radialGradient>
	<rect x="401.9" y="291.9" class="st17" width="34.5" height="34.5"/>
</g>
<g>
	<defs>
		<path id="SVGID_62_" d="M432.5,302.9c0.4,1.2,0.6,2.5,0.6,3.9c0,7.7-6.2,13.9-13.9,13.9c-1.9,0-3.8-0.4-5.5-1.1
			c-3.7,0.6-7,0.1-9.4-1.6c3,5.1,8.5,8.4,14.8,8.4c9.5,0,17.3-7.7,17.3-17.3c0-4.2-1.5-8-4-11C432.8,299.6,432.8,301.2,432.5,302.9"
			/>
	</defs>
	<clipPath id="SVGID_63_">
		<use xlink:href="#SVGID_62_"  style="overflow:visible;"/>
	</clipPath>
	
		<radialGradient id="SVGID_64_" cx="-131.8375" cy="747.8553" r="4.1829" gradientTransform="matrix(4.4082 0 0 -4.4082 1000.3074 3607.0613)" gradientUnits="userSpaceOnUse">
		<stop  offset="0" style="stop-color:#A6CE3A"/>
		<stop  offset="0.4598" style="stop-color:#A8CF39"/>
		<stop  offset="0.639" style="stop-color:#AFD136"/>
		<stop  offset="0.7692" style="stop-color:#BBD631"/>
		<stop  offset="0.7921" style="stop-color:#BED730"/>
		<stop  offset="0.8281" style="stop-color:#BED735"/>
		<stop  offset="0.8701" style="stop-color:#BFD843"/>
		<stop  offset="0.9153" style="stop-color:#C0DA5B"/>
		<stop  offset="0.9623" style="stop-color:#C2DD7B"/>
		<stop  offset="1" style="stop-color:#C4DF9B"/>
	</radialGradient>
	<rect x="404.3" y="298.2" class="st18" width="32.1" height="28.3"/>
</g>
<g>
	<defs>
		<path id="SVGID_65_" d="M404.5,307.2c0,8.1,6.5,14.6,14.6,14.6c8.1,0,14.6-6.5,14.6-14.6c0-8.1-6.6-14.6-14.6-14.6
			C411.1,292.5,404.5,299.1,404.5,307.2"/>
	</defs>
	<clipPath id="SVGID_66_">
		<use xlink:href="#SVGID_65_"  style="overflow:visible;"/>
	</clipPath>
	
		<radialGradient id="SVGID_67_" cx="-131.9131" cy="713.0812" r="4.1827" gradientTransform="matrix(8.2674 0 0 -8.2674 1509.7107 6219.0254)" gradientUnits="userSpaceOnUse">
		<stop  offset="0" style="stop-color:#A6CE3A"/>
		<stop  offset="5.617980e-003" style="stop-color:#A6CE3A"/>
		<stop  offset="0.2094" style="stop-color:#A8CF3D"/>
		<stop  offset="0.3733" style="stop-color:#ADD247"/>
		<stop  offset="0.5234" style="stop-color:#B6D658"/>
		<stop  offset="0.6652" style="stop-color:#C2DD70"/>
		<stop  offset="0.8011" style="stop-color:#D2E58F"/>
		<stop  offset="0.931" style="stop-color:#E6EFB4"/>
		<stop  offset="1" style="stop-color:#F2F5CB"/>
	</radialGradient>
	<rect x="404.5" y="292.5" class="st19" width="29.2" height="29.2"/>
</g>
<g>
	<defs>
		<path id="SVGID_68_" d="M418.7,293.8c-4.4,0.2-9.8,3.3-10.4,7.9c-0.6,5,7.8,5.2,10.8,5.2c3,0,11.4-0.2,10.8-5.2
			c-0.6-4.7-6-7.7-10.4-7.9c-0.2,0-0.3,0-0.5,0C419,293.7,418.8,293.7,418.7,293.8"/>
	</defs>
	<clipPath id="SVGID_69_">
		<use xlink:href="#SVGID_68_"  style="overflow:visible;"/>
	</clipPath>
	
		<radialGradient id="SVGID_70_" cx="-131.9153" cy="715.1514" r="4.1829" gradientTransform="matrix(7.8643 0 0 -7.8643 1456.4882 5946.123)" gradientUnits="userSpaceOnUse">
		<stop  offset="0" style="stop-color:#BCD754"/>
		<stop  offset="0.3708" style="stop-color:#BCD754"/>
		<stop  offset="0.4787" style="stop-color:#CADF77"/>
		<stop  offset="0.6492" style="stop-color:#DEEBA8"/>
		<stop  offset="0.7991" style="stop-color:#EDF3CB"/>
		<stop  offset="0.9211" style="stop-color:#F6F8E1"/>
		<stop  offset="1" style="stop-color:#F9FAE9"/>
	</radialGradient>
	<rect x="407.7" y="293.7" class="st20" width="22.9" height="13.2"/>
</g>
<g>
	<path class="st0" d="M452.8,318.9L452.8,318.9c0-4.3,3.5-7.9,7.8-7.9c4.4,0,7.9,3.5,7.9,7.8v0.1c0,4.3-3.5,7.8-7.9,7.8
		C456.2,326.7,452.8,323.1,452.8,318.9 M467.6,318.8L467.6,318.8c0-3.9-3-7-6.9-7c-3.9,0-6.9,3.2-6.9,7v0c0,3.8,3,6.9,6.9,6.9
		C464.6,325.8,467.6,322.6,467.6,318.8 M457.6,315.5c0-0.4,0.3-0.8,0.8-0.8h2.8c1.8,0,3.1,0.9,3.1,2.5c0,1.2-0.7,2.1-1.8,2.5
		l1.5,1.8c0.2,0.2,0.2,0.4,0.2,0.6c0,0.4-0.3,0.8-0.7,0.8c-0.3,0-0.5-0.2-0.7-0.4l-2.1-2.5h-1.6v2.1c0,0.4-0.4,0.8-0.8,0.8
		c-0.4,0-0.8-0.4-0.8-0.8V315.5z M461.1,318.7c1,0,1.6-0.5,1.6-1.3c0-0.9-0.6-1.3-1.6-1.3h-1.9v2.6H461.1z"/>
</g>
</svg>
