<?xml version="1.0" encoding="UTF-8" standalone="no"?>
<svg
   xmlns:dc="http://purl.org/dc/elements/1.1/"
   xmlns:cc="http://creativecommons.org/ns#"
   xmlns:rdf="http://www.w3.org/1999/02/22-rdf-syntax-ns#"
   xmlns:svg="http://www.w3.org/2000/svg"
   xmlns="http://www.w3.org/2000/svg"
   viewBox="0 0 866.96002 240.30667"
   height="240.30667"
   width="866.96002"
   xml:space="preserve"
   id="svg2"
   version="1.1"><metadata
     id="metadata8"><rdf:RDF><cc:Work
         rdf:about=""><dc:format>image/svg+xml</dc:format><dc:type
           rdf:resource="http://purl.org/dc/dcmitype/StillImage" /></cc:Work></rdf:RDF></metadata><defs
     id="defs6" /><g
     transform="matrix(1.3333333,0,0,-1.3333333,0,240.30667)"
     id="g10"><g
       transform="scale(0.1)"
       id="g12"><path
         id="path14"
         style="fill:#011f5b;fill-opacity:1;fill-rule:nonzero;stroke:none"
         d="m 2142.6,362.422 c 0,-214.973 51.46,-275.5236 196.78,-275.5236 V 35.4102 H 1715.7 v 51.4882 c 121.1,0 196.78,39.3826 196.78,269.4726 V 1443.23 c 0,211.93 -51.45,275.5 -196.78,275.5 v 51.48 h 632.75 c 478.37,0 672.13,-254.31 672.13,-493.48 0,-287.617 -217.99,-448.089 -611.58,-448.089 -75.68,0 -139.26,3.039 -266.4,18.195 V 362.422 Z m 0,563.101 c 78.71,-27.238 124.12,-30.293 214.95,-30.293 257.33,0 420.82,139.29 420.82,375.45 0,184.66 -102.93,432.92 -420.82,432.92 H 2142.6 v -778.077 0" /><path
         id="path16"
         style="fill:#011f5b;fill-opacity:1;fill-rule:nonzero;stroke:none"
         d="m 3059.91,689.371 c -6,-481.391 281.6,-602.4726 426.89,-602.4726 148.38,0 224.07,51.4416 378.48,224.0506 V 232.211 C 3735.1,65.6914 3610.93,2.12109 3423.25,2.12109 c -336.09,0 -578.28,233.10891 -578.28,557.09791 0,323.914 236.18,578.231 538.9,578.231 248.3,0 478.39,-199.825 463.26,-448.079 h -787.22 z m 584.34,51.5 c 9.09,236.117 -151.36,332.999 -287.63,332.999 -178.62,0 -284.6,-133.214 -296.71,-332.999 h 584.34 v 0" /><path
         id="path18"
         style="fill:#011f5b;fill-opacity:1;fill-rule:nonzero;stroke:none"
         d="m 5009.63,268.582 c 0,-139.293 30.33,-181.6836 181.69,-181.6836 V 35.4102 H 4619.1 v 51.4882 c 145.29,0 184.69,33.2496 184.69,133.2036 v 560.097 c 0,172.567 -124.17,245.221 -239.21,245.221 -105.96,0 -199.83,-66.58 -305.75,-208.877 V 292.762 C 4258.83,129.289 4280,86.8984 4440.5,86.8984 V 35.4102 h -566.17 v 51.4882 c 142.28,0 178.66,12.1133 178.66,205.8636 V 895.23 c 0,130.19 -33.36,157.45 -178.66,157.45 v 51.45 l 333.01,33.32 h 51.49 V 922.484 c 127.15,145.336 251.32,214.966 387.53,214.966 178.62,0 363.27,-127.16 363.27,-384.501 v -484.367 0" /><path
         id="path20"
         style="fill:#011f5b;fill-opacity:1;fill-rule:nonzero;stroke:none"
         d="m 6320.56,268.582 c 0,-139.293 30.28,-181.6836 181.67,-181.6836 V 35.4102 h -572.18 v 51.4882 c 145.29,0 184.62,33.2496 184.62,133.2036 v 560.097 c 0,172.567 -124.09,245.221 -239.14,245.221 -105.98,0 -199.82,-66.58 -305.83,-208.877 V 292.762 c 0,-163.473 21.24,-205.8636 181.69,-205.8636 V 35.4102 h -566.18 v 51.4882 c 142.31,0 178.65,12.1133 178.65,205.8636 V 895.23 c 0,130.19 -33.29,157.45 -178.65,157.45 v 51.45 l 333.09,33.32 h 51.4 V 922.484 c 127.18,145.336 251.33,214.966 387.55,214.966 178.61,0 363.31,-127.16 363.31,-384.501 v -484.367 0" /><path
         id="path22"
         style="fill:#ffffff;fill-opacity:1;fill-rule:nonzero;stroke:none"
         d="M 1582.84,1802.26 H -0.00390625 c 0,0 0.01171875,-784.87 0.0078125,-789.02 C -1.04688,669.762 189.297,420.988 349.152,272.781 524.965,109.77 718.793,15.8008 783.559,1.69141 L 791.418,0 799.352,1.69922 C 864.051,15.8008 1057.87,109.77 1233.68,272.781 c 159.87,148.207 350.2,396.981 349.15,740.439 -0.02,9.83 0.01,789.04 0.01,789.04 v 0" /><path
         id="path24"
         style="fill:#990000;fill-opacity:1;fill-rule:nonzero;stroke:none"
         d="m 40.0234,1760.58 c 0,0 2.0938,-458.54 -0.0898,-456.32 l 1503.0564,-0.02 c 0,214.83 0,456.34 0,456.34 H 40.0234 Z M 443.363,1471.91 h 0.004 c 2.309,-1.81 4.711,-3.68 6.403,-6.18 1.796,-2.68 2.714,-5.8 2.636,-9.18 0.078,-3.23 -0.84,-6.36 -2.644,-9.02 -1.684,-2.51 -4.082,-4.38 -6.395,-6.19 -3.594,-2.8 -6.98,-5.45 -6.98,-10.05 v -28.11 l -165.965,0.01 -165.957,-0.01 v 28.11 c 0,4.6 -3.387,7.25 -6.9767,10.05 -2.3203,1.81 -4.711,3.68 -6.4024,6.19 -1.8007,2.66 -2.7148,5.79 -2.6406,9.16 -0.0742,3.24 0.8399,6.36 2.6406,9.04 1.6914,2.5 4.0821,4.37 6.4024,6.18 3.5897,2.8 6.9767,5.45 6.9767,10.05 v 91.75 c 0,4.6 -3.387,7.26 -6.9767,10.06 -2.3203,1.82 -4.711,3.68 -6.4024,6.18 -1.8007,2.67 -2.7148,5.79 -2.6406,9.17 -0.0742,3.24 0.8399,6.36 2.6406,9.03 1.6954,2.51 4.1914,4.46 6.4024,6.19 3.5897,2.8 6.9767,5.45 6.9767,10.05 v 28.95 h 4.223 c 19.402,0.01 36.421,0.44 48.277,5.51 4.844,2.07 9.308,4.87 14.058,7.87 10.165,6.39 21.696,13.63 38.938,13.63 13.824,0 26.676,-5.17 38.059,-9.76 8.039,-3.23 15.625,-6.29 21.289,-6.29 h 2.234 c 5.66,0 13.254,3.06 21.332,6.31 11.344,4.57 24.188,9.74 38.02,9.74 17.242,0 28.765,-7.24 38.96,-13.65 4.727,-2.98 9.192,-5.78 14.032,-7.85 11.851,-5.07 28.875,-5.5 48.277,-5.51 h 4.223 v -28.95 c 0,-4.6 3.386,-7.25 6.98,-10.05 2.203,-1.73 4.707,-3.68 6.395,-6.18 1.804,-2.68 2.722,-5.8 2.644,-9.18 0.078,-3.24 -0.84,-6.36 -2.644,-9.03 -1.684,-2.5 -4.082,-4.36 -6.395,-6.18 -3.594,-2.8 -6.98,-5.46 -6.98,-10.06 v -91.75 c 0,-4.6 3.386,-7.25 6.976,-10.05 z m 635.117,-47.96 c -25.66,-41.05 -75.19,-51.08 -77.24,-51.48 -9.767,-1.73 -19.791,-2.6 -29.802,-2.6 h -0.012 c -51.735,0 -99.547,22.5 -148.039,47.58 -5.465,2.82 -11.524,6.14 -18.059,9.72 -30.949,16.94 -74.152,40.59 -110.726,40.59 -10.633,0 -20.711,-2.01 -29.766,-6.75 l -1.496,-0.79 -0.09,-1.69 c -0.25,-4.78 -1.156,-9.31 -2.711,-13.48 -5.824,-15.6 -24.887,-32.19 -34.176,-38.79 -21.277,-15.31 -47.429,-30.96 -80.039,-30.96 -4.875,0 -9.398,0.7 -13.437,2.07 -5.844,2 -10.883,5.54 -14.543,10.26 -1.785,2.3 -3.289,4.9 -4.469,7.75 -0.941,2.26 -1.523,4.5 -1.879,7.25 l -0.254,1.91 -1.851,0.56 c -12.629,3.79 -20.168,12.05 -20.168,22.11 0,7.57 5.586,14.19 11.007,20.6 8.422,9.98 15.704,18.59 3.829,29.85 -1.114,1.05 -2.407,2.01 -3.668,2.95 -1.727,1.27 -3.36,2.48 -4.832,4.07 -10.418,11.17 -4.262,34.38 -0.586,48.25 l 0.398,1.51 c 3.996,15.19 10.121,30.89 18.731,48.01 11.66,23.19 25.753,49.32 45.503,65.84 0.395,0.33 0.903,0.48 1.415,0.4 0.503,-0.08 0.957,-0.37 1.238,-0.79 0.398,-0.61 2.551,-3.93 5.644,-9.08 l 3.328,-5.56 2.051,6.14 c 5.489,16.4 14.551,27.03 26.93,31.56 13.266,4.87 25.621,-1.96 31.801,-6.46 l 2.609,-1.9 1.684,2.75 c 3.961,6.45 11.246,14.24 23.492,14.79 13.418,0.61 24.379,-8.55 29.687,-14.09 l 1.922,-2.01 2.141,1.79 c 6,5.02 21.664,16.45 37.394,14.32 14.891,-2 20.571,-14.97 22.317,-20.46 l 1.055,-3.3 3.105,1.53 c 7.004,3.47 20.66,8.06 33.484,-0.06 8.243,-5.22 9.223,-14.14 8.598,-20.71 l -0.367,-3.86 3.82,0.64 c 9.645,1.63 27.399,2.74 37.934,-8.02 8.289,-8.46 8.832,-19.43 7.832,-27.13 l -0.496,-3.79 3.8,0.45 c 8.461,0.99 19.829,0.19 25.957,-9.31 4.145,-6.45 2.528,-15.54 1.196,-20.39 l -0.817,-2.96 2.981,-0.73 c 4.926,-1.2 13.566,-4.27 16.137,-11.33 1.914,-5.25 1.293,-14.02 -1.684,-24.07 l -0.762,-2.58 2.489,-1.02 c 4.273,-1.75 12.082,-5.93 16.3,-14.27 4.129,-8.17 3.946,-18.31 -0.558,-30.15 l -0.727,-1.93 1.531,-1.36 c 11.028,-9.79 22.141,-18.77 33.028,-26.68 22.105,-16.08 56.566,-24.61 79.976,-5.36 8.85,7.27 12.78,20.55 9.79,33.04 -2.65,11.05 -9.96,18.66 -20.03,20.89 -17.674,3.9 -31.697,-12.91 -43.088,-29.86 -0.367,-0.56 -1.012,-0.85 -1.672,-0.79 -0.66,0.07 -1.226,0.48 -1.476,1.1 -10.481,25.05 -10.992,45.84 -1.528,61.8 8.036,13.54 23.504,23.02 42.454,26.04 l 2.54,0.4 -0.03,2.57 c -0.34,29.68 6.77,51.31 21.12,64.3 8.72,7.89 24.75,16.54 51.62,12.92 0.55,-0.08 1.04,-0.41 1.32,-0.89 0.27,-0.48 0.31,-1.07 0.1,-1.58 -19.74,-47.55 -14.85,-65.36 -4.14,-104.4 0.95,-3.44 1.93,-7.03 2.94,-10.82 v 0.01 c 9.92,-37.01 6.88,-68.65 -9.01,-94.08 z m 406.95,47.96 v 0 c 2.32,-1.81 4.71,-3.68 6.4,-6.18 1.8,-2.68 2.71,-5.8 2.64,-9.18 0.07,-3.23 -0.84,-6.36 -2.64,-9.02 -1.69,-2.51 -4.08,-4.38 -6.4,-6.19 -3.59,-2.8 -6.99,-5.45 -6.99,-10.05 v -28.11 l -165.95,0.01 -165.96,-0.01 v 28.11 c 0,4.6 -3.39,7.25 -6.98,10.05 -2.32,1.81 -4.71,3.68 -6.4,6.19 -1.8,2.66 -2.71,5.79 -2.64,9.16 -0.07,3.24 0.84,6.36 2.64,9.04 1.69,2.5 4.09,4.37 6.4,6.18 3.59,2.8 6.98,5.45 6.98,10.05 v 91.75 c 0,4.6 -3.39,7.26 -6.98,10.06 -2.32,1.82 -4.71,3.68 -6.4,6.18 -1.8,2.67 -2.71,5.79 -2.64,9.17 -0.07,3.24 0.84,6.36 2.64,9.03 1.69,2.51 4.19,4.46 6.4,6.19 3.59,2.8 6.98,5.45 6.98,10.05 v 28.95 h 4.22 c 19.4,0.01 36.43,0.44 48.28,5.51 4.84,2.07 9.31,4.87 14.06,7.87 10.16,6.39 21.69,13.63 38.93,13.63 13.83,0 26.68,-5.17 38.07,-9.76 8.03,-3.23 15.62,-6.29 21.28,-6.29 h 2.25 c 5.65,0 13.24,3.06 21.32,6.31 11.34,4.57 24.2,9.74 38.02,9.74 17.25,0 28.77,-7.24 38.97,-13.65 4.72,-2.98 9.18,-5.78 14.02,-7.85 11.85,-5.07 28.88,-5.5 48.28,-5.51 h 4.21 v -28.95 c 0,-4.6 3.4,-7.25 6.99,-10.05 2.2,-1.73 4.71,-3.68 6.4,-6.18 1.8,-2.68 2.71,-5.8 2.64,-9.18 0.07,-3.24 -0.84,-6.36 -2.64,-9.03 -1.69,-2.5 -4.08,-4.36 -6.4,-6.18 -3.59,-2.8 -6.99,-5.46 -6.99,-10.06 v -91.75 c 0,-4.6 3.4,-7.25 6.99,-10.05 v 0" /><path
         id="path26"
         style="fill:#011f5b;fill-opacity:1;fill-rule:nonzero;stroke:none"
         d="m 557.797,1491.66 c 5.258,0 10.273,-1.36 15.219,-5.45 1.64,-1.35 3.148,-2.72 4.476,-3.98 3.449,-3.29 3.235,-8.84 -0.465,-11.84 -3.722,-3.03 -7.968,-6.05 -10.617,-7.87 -6.129,-4.19 -16.613,-11.87 -23.894,-5.83 -3.676,3.05 3.609,8.02 0.422,20.66 -2.504,9.89 7.269,14.31 14.859,14.31 v 0" /><path
         id="path28"
         style="fill:#011f5b;fill-opacity:1;fill-rule:nonzero;stroke:none"
         d="m 971.438,1366.88 c -51.805,0 -100.344,22.55 -149.418,47.92 -5.528,2.86 -11.641,6.21 -18.11,9.75 -39.558,21.65 -98.933,54.15 -137.683,33.82 -0.262,-5.08 -1.239,-9.9 -2.899,-14.36 -6.074,-16.28 -25.691,-33.4 -35.226,-40.17 -21.653,-15.58 -48.321,-31.52 -81.778,-31.52 -5.203,0 -10.047,0.75 -14.394,2.23 -6.407,2.18 -11.918,6.08 -15.946,11.25 -1.937,2.51 -3.578,5.34 -4.863,8.43 -1.133,2.73 -1.73,5.3 -2.086,8.01 -13.844,4.15 -22.289,13.51 -22.289,24.97 0,8.66 5.945,15.71 11.703,22.52 9.387,11.1 13.477,16.84 4.059,25.77 -0.973,0.92 -2.145,1.78 -3.379,2.7 -1.758,1.3 -3.578,2.65 -5.254,4.44 -11.539,12.38 -5.121,36.59 -1.285,51.06 l 0.394,1.49 c 4.055,15.4 10.254,31.29 18.961,48.6 11.789,23.45 26.063,49.89 46.246,66.78 1.051,0.88 2.422,1.27 3.766,1.06 1.348,-0.2 2.543,-0.96 3.297,-2.1 0.699,-1.08 8.766,-13.47 17.211,-29.77 35.125,21.01 85.144,23.42 90.906,23.63 30.918,1.15 75.777,-3.71 113.988,-33.21 23.758,-18.32 43.34,-41.02 62.282,-62.97 4.949,-5.72 10.062,-11.65 15.16,-17.4 29.129,-32.8 56.785,-58.56 84.547,-78.75 21.207,-15.42 54.142,-23.7 76.332,-5.46 7.99,6.57 11.52,18.63 8.78,30.04 -2.37,9.91 -8.85,16.71 -17.77,18.68 -15.93,3.52 -29.147,-12.49 -39.979,-28.61 -0.977,-1.46 -2.68,-2.26 -4.43,-2.09 -1.746,0.17 -3.254,1.29 -3.937,2.91 -10.867,25.97 -11.317,47.66 -1.34,64.46 8.469,14.28 24.918,24.35 44.546,27.46 -0.35,30.58 7.09,52.95 22.1,66.54 9.18,8.32 26.01,17.44 54.02,13.67 1.46,-0.2 2.76,-1.07 3.5,-2.35 0.74,-1.29 0.84,-2.85 0.27,-4.22 -19.35,-46.61 -14.54,-64.1 -4.02,-102.42 0.94,-3.46 1.93,-7.07 2.95,-10.87 10.14,-37.84 6.99,-70.28 -9.37,-96.43 -26.35,-42.16 -77.09,-52.42 -79.24,-52.83 -10.24,-1.82 -20.346,-2.66 -30.322,-2.66 z M 695,1474.54 c 37.488,0 80.09,-23.33 113.488,-41.61 6.426,-3.52 12.492,-6.83 17.922,-9.64 57.008,-29.48 113.18,-55.06 173.61,-44.36 0.4,0.08 48.83,9.95 72.94,48.57 14.84,23.8 17.6,53.69 8.19,88.82 -1.02,3.79 -2,7.38 -2.95,10.82 -10.01,36.48 -15.71,57.24 2.02,102.68 -20.66,1.32 -33.15,-5.55 -40.15,-11.91 -13.55,-12.25 -19.91,-33.61 -18.87,-63.46 0.08,-2.51 -1.78,-4.66 -4.29,-4.91 -18.547,-1.93 -34.14,-10.68 -41.691,-23.42 -7.324,-12.33 -7.727,-28.31 -1.215,-47.59 9.203,12.57 24.793,29.52 44.746,25.11 12.43,-2.74 21.78,-12.38 25,-25.78 3.56,-14.87 -1.25,-30.8 -12,-39.63 -26.12,-21.47 -63.934,-12.4 -88.016,5.11 -28.328,20.6 -56.484,46.81 -86.07,80.14 -5.148,5.79 -10.281,11.74 -15.25,17.5 -18.633,21.59 -37.898,43.91 -60.887,61.65 -35.953,27.74 -78.453,32.28 -107.808,31.22 -19.981,-0.73 -60.086,-6.35 -86.973,-22.67 8.227,-17.12 15.676,-36.81 15.676,-52.01 0,-2.68 -0.555,-5.41 -1.504,-8.11 19.516,11.51 42.836,3.26 55.992,-11.03 2.918,-3.21 5.918,-7.76 9.403,-13.04 5.097,-7.74 10.882,-16.52 17.82,-23.21 1.027,-0.98 1.555,-2.38 1.445,-3.8 -0.105,-1.42 -0.844,-2.72 -2.008,-3.54 -0.121,-0.08 -12.484,-8.8 -29.949,-21.75 -2.355,-1.75 -4.863,-3.46 -7.078,-4.97 -0.418,-0.28 -0.855,-0.58 -1.305,-0.9 l 15.399,-2.61 c 10.586,5.87 22.211,8.33 34.363,8.33 z m -134.777,165.05 c -16.711,-15.82 -29.231,-39.17 -39.746,-60.09 -8.399,-16.71 -14.372,-32 -18.258,-46.74 l -0.395,-1.51 c -2.89,-10.9 -8.902,-33.57 -0.961,-42.09 1.075,-1.15 2.469,-2.19 3.95,-3.29 1.414,-1.04 2.871,-2.12 4.261,-3.44 16.383,-15.53 4.992,-29.01 -3.328,-38.86 -4.859,-5.76 -9.449,-11.19 -9.449,-16.36 0,-11.52 13.941,-15.57 18.219,-16.53 2.05,-0.46 3.554,-2.22 3.711,-4.31 0.242,-3.34 0.605,-5.79 1.711,-8.47 0.957,-2.31 2.167,-4.41 3.593,-6.24 2.871,-3.7 6.844,-6.49 11.481,-8.06 3.355,-1.15 7.16,-1.73 11.312,-1.73 30.75,0 55.789,15.03 76.227,29.74 12.219,8.69 27.512,24.15 31.828,35.74 1.168,3.11 1.887,6.37 2.195,9.86 l -21.5,3.66 c -0.191,0.03 -0.383,0.08 -0.574,0.13 -2.25,0.68 -3.789,2.37 -4.117,4.51 -0.664,4.3 3.164,6.91 10.781,12.1 2.246,1.53 4.57,3.11 6.77,4.74 11.285,8.38 20.461,15 25.613,18.68 -5.957,6.65 -11.004,14.32 -15.215,20.7 -3.25,4.94 -6.07,9.22 -8.461,11.85 -10.664,11.59 -29.469,18.37 -44.734,8.87 -6.168,-3.83 -11.555,-8.6 -17.262,-13.65 -4.613,-4.08 -9.387,-8.3 -14.613,-11.99 -2.039,-1.45 -4.844,-1.07 -6.434,0.86 -1.59,1.92 -1.43,4.74 0.367,6.48 0.684,0.66 1.5,1.43 2.418,2.28 6.957,6.55 23.254,21.87 23.254,32.74 0,25.17 -24.105,66.54 -32.644,80.42 v 0" /><path
         id="path30"
         style="fill:#011f5b;fill-opacity:1;fill-rule:nonzero;stroke:none"
         d="m 527.953,1399.88 c -4.523,0 -9.109,0.27 -13.765,0.82 -2.618,0.31 -4.493,2.68 -4.18,5.3 0.308,2.62 2.68,4.5 5.301,4.18 21.746,-2.57 53.484,0.34 81.171,28.82 1.836,1.89 4.86,1.93 6.75,0.1 1.891,-1.83 1.934,-4.87 0.098,-6.75 -20.793,-21.39 -46.64,-32.47 -75.375,-32.47 v 0" /><path
         id="path32"
         style="fill:#011f5b;fill-opacity:1;fill-rule:nonzero;stroke:none"
         d="m 911.102,1471.54 c -0.59,0 -1.204,0.11 -1.778,0.37 -2.261,0.98 -3.297,3.61 -2.312,5.87 4.988,11.48 5.672,20.99 2.035,28.24 -4.91,9.79 -16.406,12.6 -16.524,12.63 -1.242,0.29 -2.308,1.11 -2.91,2.23 -0.605,1.14 -0.715,2.47 -0.265,3.66 1.656,4.49 5.433,17.58 3.043,24.15 -2.047,5.63 -12.633,7.97 -16.18,8.35 -1.402,0.15 -2.66,0.95 -3.375,2.17 -0.719,1.21 -0.824,2.7 -0.281,4 1.492,3.56 4.55,14.06 0.925,19.7 -7.062,10.95 -25.597,5.64 -25.781,5.58 -1.597,-0.47 -3.32,-0.01 -4.472,1.18 -1.153,1.2 -1.551,2.94 -1.024,4.51 0.051,0.16 5.363,16.91 -5.062,27.57 -12.192,12.45 -38.305,5.13 -38.571,5.05 -1.59,-0.46 -3.3,0 -4.441,1.18 -1.152,1.2 -1.555,2.91 -1.039,4.48 0.183,0.59 4.476,14.45 -4.86,20.37 -14.851,9.41 -31.859,-2.63 -32.031,-2.76 -1.289,-0.93 -2.965,-1.1 -4.41,-0.46 -1.449,0.64 -2.449,2 -2.637,3.56 -0.093,0.76 -2.507,18.94 -18.5,21.09 -17.281,2.31 -35.586,-15.47 -35.765,-15.65 -0.914,-0.9 -2.168,-1.37 -3.453,-1.27 -1.282,0.09 -2.457,0.72 -3.235,1.74 -0.113,0.15 -12.308,15.9 -27.64,15.12 -14.813,-0.67 -20.621,-15.67 -20.672,-15.82 -0.535,-1.41 -1.746,-2.46 -3.219,-2.78 -1.477,-0.32 -3.02,0.11 -4.094,1.17 -0.136,0.14 -14.769,14.14 -29.812,8.61 -18.918,-6.94 -24.278,-30.07 -26.035,-37.67 l -0.063,-0.27 c -0.559,-2.4 -2.953,-3.89 -5.359,-3.33 -2.403,0.55 -3.895,2.95 -3.336,5.35 l 0.054,0.26 c 2.04,8.76 8.219,35.44 31.661,44.04 14.539,5.33 27.859,-1.96 34.586,-6.85 3.8,6.19 11.847,15.58 25.89,16.21 14.766,0.69 26.586,-9.39 31.973,-15.01 6.926,5.79 23.047,17.25 39.707,15 14.562,-1.97 21.855,-13.42 24.758,-22.52 7.781,3.85 22.429,8.63 36.402,-0.22 9.684,-6.14 10.633,-16.53 9.961,-23.51 10.137,1.72 29.062,2.87 40.559,-8.87 9.359,-9.56 9.648,-21.95 8.656,-29.6 8.219,0.97 21.609,0.52 28.804,-10.65 4.668,-7.24 3.196,-16.88 1.567,-22.79 6.055,-1.48 15.25,-5.02 18.23,-13.22 2.903,-7.96 0.254,-19.58 -1.629,-25.93 5.133,-2.1 13.274,-6.68 17.832,-15.68 4.93,-9.74 4.333,-21.82 -1.781,-35.9 -0.734,-1.68 -2.375,-2.68 -4.097,-2.68 v 0" /><path
         id="path34"
         style="fill:#011f5b;fill-opacity:1;fill-rule:nonzero;stroke:none"
         d="m 888.816,1409.93 c -0.179,0 -0.363,0.01 -0.546,0.03 -2.442,0.3 -4.184,2.52 -3.883,4.97 2.086,17.08 -7.957,20.18 -16.821,22.93 -2.351,0.73 -4.378,1.36 -5.988,2.28 -4.726,2.74 -4.906,8.43 -5.101,14.46 -0.204,6.36 -0.434,13.56 -5.254,18.96 -8.289,9.26 -24.743,3.26 -24.907,3.21 -1.488,-0.56 -3.156,-0.28 -4.378,0.72 -1.231,1 -1.833,2.58 -1.59,4.15 0.027,0.17 2.632,18.21 -7.746,27.02 -8.836,7.5 -25.508,5.68 -31.184,4.35 -1.387,-0.32 -2.836,0.03 -3.914,0.95 -1.086,0.93 -1.66,2.31 -1.555,3.72 0.817,11.18 -3.636,20.78 -12.226,26.35 -7.27,4.71 -16.055,5.35 -22.914,1.65 -18.754,-10.1 -26.094,-10.78 -45.743,3.13 -6.132,4.33 -12.257,5.78 -18.199,4.26 -7.519,-1.91 -14.429,-8.6 -19.469,-18.85 -1.082,-2.22 -3.761,-3.12 -5.968,-2.03 -2.211,1.08 -3.125,3.75 -2.043,5.97 6.215,12.63 15.187,21 25.281,23.56 8.465,2.16 17.301,0.21 25.559,-5.63 16.539,-11.71 20.324,-11.18 36.351,-2.55 9.735,5.23 21.992,4.46 32,-2.02 9.75,-6.32 15.617,-16.86 16.317,-28.89 8.121,0.99 23.371,1.42 33.484,-7.17 9.598,-8.14 11.219,-20.91 11.215,-28.63 7.519,1.43 19.984,1.95 28.281,-7.32 6.984,-7.82 7.301,-17.53 7.523,-24.63 0.079,-2.44 0.196,-6.1 0.774,-7.08 0.793,-0.41 2.437,-0.92 4.035,-1.41 8.449,-2.62 26.031,-8.06 23.031,-32.54 -0.269,-2.26 -2.195,-3.92 -4.422,-3.92 v 0" /><path
         id="path36"
         style="fill:#011f5b;fill-opacity:1;fill-rule:nonzero;stroke:none"
         d="m 445.238,1474.31 c -3.711,2.9 -5.808,4.68 -5.808,7.65 v 91.75 c 0,2.98 2.097,4.76 5.812,7.66 2.387,1.86 5.094,3.97 7.047,6.88 2.16,3.2 3.25,6.93 3.164,10.8 0.086,3.88 -1.004,7.61 -3.164,10.81 -1.953,2.9 -4.66,5.01 -7.051,6.87 -3.711,2.91 -5.808,4.69 -5.808,7.66 v 32 h -7.266 v 0 c -17.012,0.01 -35.246,0.2 -47.082,5.26 -4.625,1.98 -8.988,4.73 -13.613,7.63 -10.524,6.61 -22.442,14.11 -40.574,14.11 -14.415,0 -27.551,-5.28 -39.161,-9.95 -7.765,-3.14 -15.109,-6.09 -20.191,-6.09 h -1.07 v 0 h -0.094 v 0 h -1.074 c -5.078,0 -12.418,2.95 -20.196,6.09 -11.597,4.67 -24.738,9.95 -39.156,9.95 -18.129,0 -30.047,-7.5 -40.57,-14.11 -4.625,-2.9 -8.985,-5.65 -13.613,-7.63 -11.836,-5.06 -30.075,-5.25 -47.082,-5.26 v 0 h -7.27 v -32 c 0,-2.97 -2.0977,-4.75 -5.8047,-7.66 -2.3867,-1.86 -5.0977,-3.97 -7.0547,-6.87 -2.1563,-3.2 -3.2539,-6.93 -3.1602,-10.81 -0.0937,-3.87 1.0039,-7.6 3.1602,-10.8 1.957,-2.91 4.668,-5.02 7.0508,-6.88 3.7109,-2.9 5.8086,-4.68 5.8086,-7.66 v -91.75 c 0,-2.97 -2.0977,-4.75 -5.8047,-7.65 -2.3867,-1.86 -5.0977,-3.98 -7.0547,-6.88 -2.1563,-3.2 -3.2539,-6.93 -3.1602,-10.8 -0.0937,-3.87 1.0039,-7.61 3.1602,-10.81 1.957,-2.9 4.668,-5.02 7.0508,-6.88 3.7109,-2.9 5.8086,-4.68 5.8086,-7.65 v -30.72 l -0.238,-0.42 h 0.238 v -0.01 H 270.422 439.43 v 0.01 h 0.242 l -0.242,0.42 v 30.72 c 0,2.97 2.097,4.75 5.812,7.65 2.387,1.86 5.094,3.98 7.047,6.88 2.16,3.2 3.25,6.94 3.164,10.81 0.086,3.87 -1.004,7.6 -3.164,10.8 -1.953,2.9 -4.66,5.02 -7.051,6.88 z m -149.504,189.2 c 10.7,4.3 22.817,9.18 35.161,9.18 15.039,0 24.675,-6.05 34.875,-12.47 4.777,-3.01 9.71,-6.11 15.109,-8.41 4.402,-1.88 9.144,-3.18 14.137,-4.09 V 1452.9 c -7.973,1.23 -16.672,1.26 -25.813,1.29 -14,0.04 -28.473,0.09 -42.398,4.31 -4.746,1.44 -9.524,2.96 -14.2,4.46 -14.453,4.61 -27.054,8.63 -35.957,9.44 -0.175,0.03 -0.375,0.05 -0.562,0.07 v 184.59 c 5.941,0.95 12.398,3.53 19.648,6.45 z m -135.765,-11.7 c 5.406,2.3 10.336,5.4 15.113,8.41 10.199,6.42 19.828,12.47 34.871,12.47 12.34,0 24.465,-4.88 35.16,-9.18 7.512,-3.03 14.168,-5.68 20.27,-6.54 v -184.43 c -0.387,-0.05 -0.754,-0.09 -1.082,-0.14 -8.906,-0.81 -21.512,-4.83 -35.969,-9.44 -4.672,-1.5 -9.441,-3.02 -14.187,-4.46 -13.93,-4.22 -28.407,-4.27 -42.399,-4.31 -9.152,-0.03 -17.848,-0.06 -25.82,-1.29 v 194.84 c 4.965,0.9 9.672,2.21 14.043,4.07 z m 286.125,-195.33 c 0.054,-1.97 -0.465,-3.8 -1.559,-5.42 -1.129,-1.67 -3.039,-3.16 -5.055,-4.74 -4.195,-3.27 -9.414,-7.35 -9.414,-15.03 v -20.43 H 270.473 270.379 110.777 v 20.43 c 0,7.68 -5.214,11.76 -9.406,15.03 -2.0194,1.58 -3.9218,3.07 -5.0507,4.74 -1.0976,1.62 -1.625,3.45 -1.5625,5.42 v 0.15 0.14 c -0.0625,1.97 0.4649,3.8 1.5625,5.42 1.1289,1.68 3.0313,3.17 5.0507,4.74 4.192,3.28 9.406,7.35 9.406,15.03 v 91.75 c 0,7.69 -5.214,11.77 -9.406,15.03 -2.0194,1.58 -3.9218,3.07 -5.0507,4.74 -1.0976,1.63 -1.625,3.46 -1.5625,5.43 v 0.14 0.14 c -0.0625,1.99 0.4649,3.81 1.5625,5.43 1.1289,1.67 3.0313,3.17 5.0507,4.74 4.192,3.28 9.406,7.35 9.406,15.03 v 21.29 c 0.223,0 0.442,0 0.68,0 8.313,0 16.391,0.07 24.027,0.71 v -210.9 h 116.211 c 2.203,-8.31 9.778,-14.47 18.778,-14.47 8.996,0 16.566,6.16 18.773,14.47 h 116.215 v 0 210.9 c 7.609,-0.64 15.656,-0.71 23.926,-0.71 0.246,0 0.465,0 0.679,0 v -21.29 c 0,-7.68 5.219,-11.75 9.414,-15.03 2.016,-1.57 3.926,-3.07 5.055,-4.74 1.094,-1.62 1.613,-3.44 1.559,-5.43 l -0.008,-0.14 0.008,-0.14 c 0.054,-1.97 -0.465,-3.8 -1.559,-5.43 -1.129,-1.67 -3.039,-3.16 -5.055,-4.74 -4.195,-3.26 -9.414,-7.34 -9.414,-15.03 v -91.75 c 0,-7.68 5.219,-11.75 9.414,-15.03 2.016,-1.57 3.926,-3.06 5.055,-4.74 1.094,-1.62 1.613,-3.45 1.559,-5.42 l -0.008,-0.14 0.008,-0.15 v 0" /><path
         id="path38"
         style="fill:#011f5b;fill-opacity:1;fill-rule:nonzero;stroke:none"
         d="m 1487.3,1474.31 c -3.7,2.9 -5.8,4.68 -5.8,7.65 v 91.75 c 0,2.98 2.1,4.76 5.8,7.66 2.39,1.86 5.1,3.97 7.06,6.88 2.15,3.2 3.25,6.93 3.16,10.8 0.09,3.88 -1.01,7.61 -3.16,10.81 -1.96,2.9 -4.67,5.01 -7.06,6.87 -3.7,2.91 -5.8,4.69 -5.8,7.66 v 32 h -7.27 v 0 c -17.02,0.01 -35.24,0.2 -47.08,5.26 -4.62,1.98 -8.99,4.73 -13.61,7.63 -10.52,6.61 -22.45,14.11 -40.58,14.11 -14.41,0 -27.56,-5.28 -39.16,-9.95 -7.77,-3.14 -15.11,-6.09 -20.18,-6.09 h -1.09 v 0 h -0.08 v 0 h -1.08 c -5.08,0 -12.42,2.95 -20.19,6.09 -11.61,4.67 -24.75,9.95 -39.16,9.95 -18.13,0 -30.05,-7.5 -40.57,-14.11 -4.62,-2.9 -8.99,-5.65 -13.61,-7.63 -11.84,-5.06 -30.08,-5.25 -47.09,-5.26 v 0 h -7.26 v -32 c 0,-2.97 -2.1,-4.75 -5.81,-7.66 -2.39,-1.86 -5.1,-3.97 -7.05,-6.87 -2.17,-3.2 -3.25,-6.93 -3.17,-10.81 -0.08,-3.87 1,-7.6 3.17,-10.8 1.95,-2.91 4.66,-5.02 7.05,-6.88 3.71,-2.9 5.81,-4.68 5.81,-7.66 v -91.75 c 0,-2.97 -2.1,-4.75 -5.81,-7.65 -2.39,-1.86 -5.1,-3.98 -7.05,-6.88 -2.17,-3.2 -3.25,-6.93 -3.17,-10.8 -0.08,-3.87 1,-7.61 3.17,-10.81 1.95,-2.9 4.66,-5.02 7.05,-6.88 3.71,-2.9 5.81,-4.68 5.81,-7.65 v -30.72 l -0.24,-0.42 h 0.24 v -0.01 h 169 169.01 v 0.01 h 0.24 l -0.24,0.42 v 30.72 c 0,2.97 2.1,4.75 5.8,7.65 2.39,1.86 5.1,3.98 7.06,6.88 2.15,3.2 3.25,6.94 3.16,10.81 0.09,3.87 -1.01,7.6 -3.16,10.8 -1.96,2.9 -4.67,5.02 -7.06,6.88 z m -149.49,189.2 c 10.69,4.3 22.82,9.18 35.15,9.18 15.05,0 24.67,-6.05 34.87,-12.47 4.78,-3.01 9.72,-6.11 15.12,-8.41 4.4,-1.88 9.13,-3.18 14.14,-4.09 V 1452.9 c -7.98,1.23 -16.68,1.26 -25.83,1.29 -13.99,0.04 -28.46,0.09 -42.4,4.31 -4.74,1.44 -9.51,2.96 -14.19,4.46 -14.45,4.61 -27.05,8.63 -35.96,9.44 -0.17,0.03 -0.37,0.05 -0.55,0.07 v 184.59 c 5.93,0.95 12.39,3.53 19.65,6.45 z m -135.77,-11.7 c 5.4,2.3 10.33,5.4 15.12,8.41 10.19,6.42 19.82,12.47 34.86,12.47 12.34,0 24.46,-4.88 35.16,-9.18 7.51,-3.03 14.17,-5.68 20.27,-6.54 v -184.43 c -0.38,-0.05 -0.75,-0.09 -1.08,-0.14 -8.91,-0.81 -21.51,-4.83 -35.97,-9.44 -4.67,-1.5 -9.45,-3.02 -14.2,-4.46 -13.92,-4.22 -28.39,-4.27 -42.39,-4.31 -9.14,-0.03 -17.84,-0.06 -25.82,-1.29 v 194.84 c 4.96,0.9 9.68,2.21 14.05,4.07 z m 286.12,-195.33 c 0.07,-1.97 -0.47,-3.8 -1.57,-5.42 -1.12,-1.67 -3.03,-3.16 -5.04,-4.74 -4.19,-3.27 -9.41,-7.35 -9.41,-15.03 v -20.43 h -159.61 -0.08 -159.6 v 20.43 c 0,7.68 -5.22,11.76 -9.41,15.03 -2.01,1.58 -3.93,3.07 -5.05,4.74 -1.1,1.62 -1.62,3.45 -1.57,5.42 l 0.01,0.15 -0.01,0.14 c -0.05,1.97 0.47,3.8 1.57,5.42 1.12,1.68 3.04,3.17 5.05,4.74 4.19,3.28 9.41,7.35 9.41,15.03 v 91.75 c 0,7.69 -5.22,11.77 -9.41,15.03 -2.01,1.58 -3.93,3.07 -5.05,4.74 -1.1,1.63 -1.62,3.46 -1.57,5.43 l 0.01,0.14 -0.01,0.14 c -0.05,1.99 0.47,3.81 1.57,5.43 1.12,1.67 3.04,3.17 5.05,4.74 4.19,3.28 9.41,7.35 9.41,15.03 v 21.29 c 0.22,0 0.44,0 0.68,0 8.3,0 16.38,0.07 24.02,0.71 v -210.9 h 116.22 c 2.2,-8.31 9.77,-14.47 18.76,-14.47 9,0 16.58,6.16 18.78,14.47 h 116.22 v 0 210.9 c 7.6,-0.64 15.65,-0.71 23.93,-0.71 0.24,0 0.46,0 0.68,0 v -21.29 c 0,-7.68 5.22,-11.75 9.41,-15.03 2.01,-1.57 3.92,-3.07 5.04,-4.74 1.1,-1.62 1.64,-3.44 1.57,-5.43 v -0.14 -0.14 c 0.07,-1.97 -0.47,-3.8 -1.57,-5.43 -1.12,-1.67 -3.03,-3.16 -5.04,-4.74 -4.19,-3.26 -9.41,-7.34 -9.41,-15.03 v -91.75 c 0,-7.68 5.22,-11.75 9.41,-15.03 2.01,-1.57 3.92,-3.06 5.04,-4.74 1.1,-1.62 1.64,-3.45 1.57,-5.42 v -0.14 -0.15 0" /><path
         id="path40"
         style="fill:#011f5b;fill-opacity:1;fill-rule:nonzero;stroke:none"
         d="M 1552.85,1772.23 H 30.0703 c 0,0 0.0313,-749.1 0.0039,-759.08 C 29.0586,680.551 214.152,438.93 369.613,294.801 539.09,137.66 729.961,44.1094 789.922,31.0391 l 1.543,-0.3282 1.543,0.3282 c 59.965,13.0703 250.832,106.6209 420.302,263.7619 155.46,144.129 340.55,385.75 339.54,718.349 -0.03,9.98 0,759.08 0,759.08 z m -21.13,-21.13 c 0,-48.5 -0.01,-254.29 -0.01,-436.29 H 51.2188 c -0.004,182 -0.0118,387.79 -0.0157,436.29 H 1531.72 Z M 344.969,574.82 c -50.926,50.942 -50.926,133.52 0,184.461 50.937,50.922 133.511,50.922 184.449,0 50.93,-50.941 50.93,-133.519 0,-184.461 -50.938,-50.941 -133.512,-50.941 -184.449,0 z M 1198.94,310.289 C 1022.85,147.031 840.336,64.75 791.465,52.4102 742.586,64.75 560.074,147.031 383.98,310.289 c -4.281,3.992 -8.593,8.039 -12.917,12.16 L 791.465,768.781 1211.86,322.449 c -4.32,-4.121 -8.63,-8.168 -12.92,-12.16 z M 661.066,990.605 c 0,72.005 58.383,130.385 130.399,130.385 72.015,0 130.394,-58.38 130.394,-130.385 0,-72.023 -58.379,-130.402 -130.394,-130.402 -72.016,0 -130.399,58.379 -130.399,130.402 z M 1237.96,574.82 c -50.94,-50.941 -133.52,-50.941 -184.45,0 -50.93,50.942 -50.93,133.52 0,184.461 50.93,50.922 133.51,50.922 184.45,0 50.93,-50.941 50.93,-133.519 0,-184.461 z m 209.4,66.012 L 791.465,1273.41 135.57,640.832 c -50.9177,107.09 -84.7927,231.363 -84.363,372.258 0.0118,4.14 0.0157,131.82 0.0118,280.59 H 1531.71 c 0,-148.77 0,-276.45 0.01,-280.59 0.43,-140.895 -33.46,-265.168 -84.36,-372.258 v 0" /></g></g></svg>